<svg width="358" height="118" viewBox="0 0 358 118" fill="none" xmlns="http://www.w3.org/2000/svg">
<path d="M182.816 98.526C178.896 98.526 175.499 97.7093 172.624 96.076C169.749 94.4427 167.528 92.2867 165.96 89.608C164.457 86.864 163.706 83.8913 163.706 80.69C163.706 77.6847 164.359 74.7447 165.666 71.87C166.973 68.9953 168.769 66.382 171.056 64.03C173.408 61.6127 176.119 59.6527 179.19 58.15C182.261 56.582 185.56 55.6347 189.088 55.308C186.54 53.2173 184.645 50.8 183.404 48.056C182.228 45.312 181.64 42.568 181.64 39.824C181.64 36.3613 182.522 33.0947 184.286 30.024C186.05 26.888 188.435 24.3727 191.44 22.478C194.511 20.518 198.006 19.538 201.926 19.538C205.454 19.538 208.1 20.42 209.864 22.184C211.693 23.948 212.608 26.5287 212.608 29.926C212.608 32.3433 212.216 34.728 211.432 37.08C210.648 39.3667 209.668 41.2613 208.492 42.764C207.381 44.2013 206.271 44.92 205.16 44.92C204.441 44.92 203.755 44.626 203.102 44.038C202.449 43.3847 201.926 42.6333 201.534 41.784C203.821 39.7587 205.715 37.668 207.218 35.512C208.786 33.2907 209.57 30.906 209.57 28.358C209.57 26.3327 209.015 24.6993 207.904 23.458C206.859 22.1513 205.193 21.498 202.906 21.498C199.835 21.498 197.255 22.4453 195.164 24.34C193.073 26.1693 191.473 28.6193 190.362 31.69C189.317 34.6953 188.794 37.962 188.794 41.49C188.794 43.058 188.925 44.724 189.186 46.488C189.513 48.252 190.068 49.9833 190.852 51.682C191.701 53.3807 192.91 54.916 194.478 56.288C190.101 57.0067 186.279 58.6727 183.012 61.286C179.811 63.8993 177.295 66.97 175.466 70.498C173.702 74.026 172.82 77.5213 172.82 80.984C172.82 83.14 173.212 85.3287 173.996 87.55C174.845 89.706 176.185 91.5027 178.014 92.94C179.843 94.4427 182.293 95.194 185.364 95.194C188.827 95.194 192.159 94.312 195.36 92.548C198.627 90.784 201.567 88.432 204.18 85.492C206.859 82.552 209.047 79.2527 210.746 75.594C212.445 71.87 213.523 68.048 213.98 64.128C212.608 64.1933 211.334 64.2913 210.158 64.422C209.047 64.5527 207.806 64.7487 206.434 65.01C205.062 65.206 203.298 65.5327 201.142 65.99C201.273 63.246 202.318 61.4167 204.278 60.502C206.238 59.5873 208.59 59.13 211.334 59.13C213.294 59.13 215.156 59.2607 216.92 59.522C218.684 59.7833 220.35 60.0447 221.918 60.306C223.551 60.5673 225.021 60.7307 226.328 60.796C225.609 62.2987 224.891 63.2133 224.172 63.54C223.519 63.8013 222.865 63.932 222.212 63.932C221.101 63.932 220.056 63.9647 219.076 64.03C218.161 64.03 217.312 64.03 216.528 64.03C216.071 68.538 214.829 72.85 212.804 76.966C210.844 81.082 208.296 84.7733 205.16 88.04C202.089 91.2413 198.627 93.7893 194.772 95.684C190.983 97.5787 186.997 98.526 182.816 98.526Z" fill="white" fill-opacity="0.5"/>
<path d="M19.488 32.088C18.768 32.088 18.272 31.928 18 31.608C17.728 31.288 17.592 30.88 17.592 30.384C17.592 29.92 17.688 29.368 17.88 28.728C18.072 28.088 18.272 27.472 18.48 26.88C18.752 26.096 19.08 25.176 19.464 24.12C19.848 23.064 20.256 21.96 20.688 20.808C21.136 19.656 21.584 18.52 22.032 17.4C22.496 16.28 22.944 15.264 23.376 14.352C22.272 14.368 21.344 14.392 20.592 14.424C19.856 14.456 19.192 14.504 18.6 14.568C18.008 14.616 17.36 14.704 16.656 14.832C16.704 14.288 16.984 13.864 17.496 13.56C18.008 13.256 18.696 13.04 19.56 12.912C20.424 12.784 21.408 12.72 22.512 12.72C23.616 12.72 24.6 12.768 25.464 12.864C26.344 12.944 27.168 13.024 27.936 13.104C28.704 13.184 29.472 13.232 30.24 13.248C29.696 13.744 29.072 14.056 28.368 14.184C27.664 14.312 26.92 14.376 26.136 14.376C25.96 14.376 25.776 14.376 25.584 14.376C25.392 14.36 25.2 14.352 25.008 14.352C24.816 14.352 24.624 14.352 24.432 14.352C23.92 15.632 23.328 17.248 22.656 19.2C22 21.152 21.336 23.352 20.664 25.8C20.44 26.648 20.232 27.408 20.04 28.08C19.864 28.752 19.72 29.368 19.608 29.928C19.512 30.488 19.464 31.032 19.464 31.56C19.464 31.64 19.464 31.728 19.464 31.824C19.464 31.92 19.472 32.008 19.488 32.088ZM26.9327 30.912C26.6287 30.912 26.3887 30.656 26.2127 30.144C26.0367 29.632 25.9487 29.056 25.9487 28.416C25.9487 27.648 26.0767 26.736 26.3327 25.68C26.5887 24.624 26.9247 23.512 27.3407 22.344C27.7567 21.176 28.2207 20.032 28.7327 18.912C29.2607 17.792 29.7967 16.776 30.3407 15.864C30.8847 14.952 31.3967 14.224 31.8767 13.68C32.3567 13.136 32.7727 12.864 33.1247 12.864C33.4127 12.864 33.6127 13.04 33.7247 13.392C33.8527 13.728 33.9167 14.056 33.9167 14.376C33.9167 14.824 33.8127 15.368 33.6047 16.008C33.4127 16.648 33.1407 17.336 32.7887 18.072C32.4367 18.792 32.0287 19.504 31.5647 20.208C31.1007 20.912 30.5967 21.56 30.0527 22.152C29.5087 22.728 28.9567 23.184 28.3967 23.52C28.2047 23.984 28.0367 24.504 27.8927 25.08C27.7647 25.656 27.6687 26.224 27.6047 26.784C27.5407 27.328 27.5087 27.816 27.5087 28.248C27.5087 28.424 27.5087 28.576 27.5087 28.704C27.5247 28.832 27.5407 28.952 27.5567 29.064C27.7807 28.408 28.0207 27.776 28.2767 27.168C28.5487 26.544 28.8367 25.976 29.1407 25.464C29.4447 24.936 29.7647 24.48 30.1007 24.096C30.4527 23.696 30.8207 23.392 31.2047 23.184C31.5887 22.96 31.9967 22.848 32.4287 22.848C32.8767 22.848 33.2287 22.96 33.4847 23.184C33.7567 23.392 33.9487 23.664 34.0607 24C34.1887 24.32 34.2527 24.656 34.2527 25.008C34.2527 25.504 34.1647 25.984 33.9887 26.448C33.8287 26.912 33.6607 27.36 33.4847 27.792C33.3087 28.224 33.2207 28.64 33.2207 29.04C33.2207 29.36 33.2847 29.592 33.4127 29.736C33.5567 29.88 33.7327 29.952 33.9407 29.952C34.3087 29.952 34.7167 29.776 35.1647 29.424C35.6287 29.072 36.0847 28.608 36.5327 28.032C36.9807 27.44 37.3647 26.8 37.6847 26.112L37.9967 26.4C37.6607 27.184 37.2527 27.896 36.7727 28.536C36.2927 29.16 35.7647 29.656 35.1887 30.024C34.6127 30.392 34.0127 30.576 33.3887 30.576C32.8447 30.576 32.4287 30.432 32.1407 30.144C31.8687 29.856 31.7327 29.496 31.7327 29.064C31.7327 28.728 31.7967 28.352 31.9247 27.936C32.0527 27.52 32.1727 27.096 32.2847 26.664C32.4127 26.232 32.4767 25.824 32.4767 25.44C32.4767 25.024 32.3887 24.728 32.2127 24.552C32.0367 24.376 31.8207 24.288 31.5647 24.288C31.1647 24.288 30.8047 24.448 30.4847 24.768C30.1647 25.088 29.8687 25.504 29.5967 26.016C29.3407 26.512 29.0927 27.04 28.8527 27.6C28.6287 28.16 28.4127 28.696 28.2047 29.208C27.9967 29.704 27.7887 30.112 27.5807 30.432C27.3727 30.752 27.1567 30.912 26.9327 30.912ZM28.7087 22.584C29.1567 22.232 29.5887 21.784 30.0047 21.24C30.4367 20.696 30.8367 20.12 31.2047 19.512C31.5727 18.888 31.9007 18.28 32.1887 17.688C32.4767 17.096 32.7007 16.56 32.8607 16.08C33.0207 15.6 33.1007 15.24 33.1007 15C33.1007 14.92 33.0927 14.872 33.0767 14.856C33.0607 14.824 33.0367 14.808 33.0047 14.808C32.8927 14.808 32.6607 15.032 32.3087 15.48C31.9727 15.912 31.5807 16.496 31.1327 17.232C30.6847 17.968 30.2447 18.8 29.8127 19.728C29.3807 20.656 29.0127 21.608 28.7087 22.584ZM39.8108 31.056C38.8348 31.056 38.0988 30.784 37.6028 30.24C37.1227 29.712 36.8827 29.056 36.8827 28.272C36.8827 27.552 37.0587 26.792 37.4108 25.992C37.7788 25.192 38.2588 24.44 38.8508 23.736C39.4588 23.032 40.1228 22.464 40.8428 22.032C41.5628 21.584 42.2748 21.36 42.9788 21.36C43.3468 21.36 43.6828 21.456 43.9868 21.648C44.3068 21.84 44.4668 22.232 44.4668 22.824C44.4668 23.432 44.2828 24.008 43.9148 24.552C43.5628 25.08 43.0908 25.552 42.4988 25.968C41.9228 26.384 41.2828 26.728 40.5788 27C39.8908 27.256 39.2028 27.416 38.5148 27.48C38.4828 27.64 38.4588 27.792 38.4428 27.936C38.4268 28.08 38.4188 28.216 38.4188 28.344C38.4188 28.584 38.4428 28.824 38.4908 29.064C38.5548 29.304 38.6588 29.528 38.8027 29.736C38.9468 29.928 39.1388 30.08 39.3788 30.192C39.6348 30.304 39.9468 30.36 40.3148 30.36C41.0028 30.36 41.6828 30.168 42.3548 29.784C43.0268 29.384 43.6508 28.864 44.2268 28.224C44.8028 27.584 45.2908 26.88 45.6908 26.112L45.9788 26.328C45.5468 27.288 44.9948 28.12 44.3228 28.824C43.6668 29.528 42.9468 30.072 42.1628 30.456C41.3948 30.856 40.6108 31.056 39.8108 31.056ZM38.6348 27.024C39.0668 26.88 39.5548 26.672 40.0988 26.4C40.6428 26.112 41.1628 25.776 41.6588 25.392C42.1708 25.008 42.5868 24.584 42.9068 24.12C43.2428 23.656 43.4108 23.168 43.4108 22.656C43.4108 22.48 43.3788 22.344 43.3148 22.248C43.2508 22.152 43.1148 22.104 42.9068 22.104C42.5228 22.104 42.1148 22.256 41.6828 22.56C41.2508 22.848 40.8348 23.232 40.4348 23.712C40.0348 24.192 39.6748 24.72 39.3548 25.296C39.0348 25.872 38.7948 26.448 38.6348 27.024ZM56.4853 32.088C56.3093 32.088 56.1013 32.056 55.8613 31.992C55.6373 31.944 55.4133 31.848 55.1893 31.704C54.9653 31.576 54.7813 31.384 54.6373 31.128C54.4933 30.888 54.4213 30.568 54.4213 30.168C54.4213 29.608 54.5573 28.872 54.8293 27.96C55.1013 27.032 55.4133 26.008 55.7653 24.888C56.0373 24.024 56.3013 23.128 56.5573 22.2C56.8133 21.272 57.0213 20.344 57.1813 19.416C57.3573 18.488 57.4453 17.6 57.4453 16.752C57.4453 16.16 57.4213 15.608 57.3733 15.096C57.3413 14.584 57.2213 14.176 57.0133 13.872C56.8213 13.552 56.4853 13.392 56.0053 13.392C55.5573 13.392 55.1733 13.528 54.8533 13.8C54.5493 14.056 54.2933 14.392 54.0853 14.808C53.8933 15.224 53.7493 15.664 53.6533 16.128C53.5733 16.592 53.5333 17.024 53.5333 17.424C53.5333 17.952 53.6053 18.384 53.7493 18.72C53.1253 18.72 52.6853 18.552 52.4293 18.216C52.1733 17.864 52.0453 17.456 52.0453 16.992C52.0453 16.496 52.1573 16 52.3813 15.504C52.6213 15.008 52.9413 14.552 53.3413 14.136C53.7573 13.704 54.2293 13.36 54.7573 13.104C55.2853 12.848 55.8453 12.72 56.4373 12.72C57.4293 12.72 58.1653 13.112 58.6453 13.896C59.1413 14.664 59.3893 15.696 59.3893 16.992C59.3893 18.16 59.2213 19.4 58.8853 20.712C58.5653 22.008 58.2053 23.272 57.8053 24.504C57.5493 25.304 57.3013 26.072 57.0613 26.808C56.8373 27.528 56.6533 28.192 56.5093 28.8C56.3653 29.408 56.2933 29.944 56.2933 30.408C56.2933 30.712 56.3413 30.944 56.4373 31.104C56.5333 31.264 56.7253 31.344 57.0133 31.344C57.4133 31.344 57.8533 31.152 58.3333 30.768C58.8293 30.4 59.3253 29.896 59.8213 29.256C60.3333 28.616 60.8213 27.912 61.2853 27.144C61.7653 26.36 62.1973 25.56 62.5813 24.744C62.9813 23.928 63.3093 23.152 63.5653 22.416C63.8373 21.68 64.0053 21.048 64.0693 20.52C64.5973 20.52 64.9653 20.656 65.1733 20.928C65.3973 21.2 65.5093 21.456 65.5093 21.696C65.5093 21.952 65.4053 22.344 65.1973 22.872C64.9893 23.4 64.7413 23.992 64.4533 24.648C64.2133 25.224 63.9653 25.84 63.7093 26.496C63.4693 27.152 63.2613 27.808 63.0853 28.464C62.9253 29.12 62.8453 29.744 62.8453 30.336C62.8453 30.64 62.8853 30.88 62.9653 31.056C63.0453 31.248 63.2293 31.344 63.5173 31.344C63.9653 31.344 64.4853 31.112 65.0773 30.648C65.6693 30.2 66.2773 29.584 66.9013 28.8C67.5413 28 68.1573 27.104 68.7493 26.112C69.3573 25.12 69.9013 24.088 70.3813 23.016C70.8613 21.928 71.2453 20.864 71.5333 19.824C71.8213 18.784 71.9653 17.824 71.9653 16.944C71.9653 16.144 71.8453 15.56 71.6053 15.192C71.3653 14.808 71.0453 14.56 70.6453 14.448C70.8693 14.064 71.1013 13.784 71.3413 13.608C71.5973 13.432 71.8293 13.344 72.0373 13.344C72.3733 13.344 72.7013 13.56 73.0213 13.992C73.3413 14.424 73.5013 15.096 73.5013 16.008C73.5013 16.888 73.3333 17.888 72.9973 19.008C72.6773 20.128 72.2373 21.296 71.6773 22.512C71.1173 23.712 70.4773 24.88 69.7573 26.016C69.0373 27.152 68.2853 28.176 67.5013 29.088C66.7173 30 65.9413 30.728 65.1733 31.272C64.4053 31.816 63.6933 32.088 63.0373 32.088C62.7333 32.088 62.4213 32.024 62.1013 31.896C61.7813 31.768 61.5093 31.568 61.2853 31.296C61.0773 31.04 60.9733 30.704 60.9733 30.288C60.9733 30.048 61.0133 29.744 61.0933 29.376C61.1893 28.992 61.3093 28.576 61.4533 28.128C60.6373 29.28 59.7973 30.224 58.9333 30.96C58.0853 31.712 57.2693 32.088 56.4853 32.088ZM75.0842 31.056C74.1082 31.056 73.3722 30.784 72.8762 30.24C72.3962 29.712 72.1562 29.056 72.1562 28.272C72.1562 27.552 72.3322 26.792 72.6842 25.992C73.0522 25.192 73.5322 24.44 74.1242 23.736C74.7322 23.032 75.3962 22.464 76.1162 22.032C76.8362 21.584 77.5482 21.36 78.2522 21.36C78.6202 21.36 78.9562 21.456 79.2602 21.648C79.5802 21.84 79.7402 22.232 79.7402 22.824C79.7402 23.432 79.5562 24.008 79.1882 24.552C78.8362 25.08 78.3642 25.552 77.7722 25.968C77.1962 26.384 76.5562 26.728 75.8522 27C75.1642 27.256 74.4762 27.416 73.7882 27.48C73.7562 27.64 73.7322 27.792 73.7162 27.936C73.7002 28.08 73.6922 28.216 73.6922 28.344C73.6922 28.584 73.7162 28.824 73.7642 29.064C73.8282 29.304 73.9322 29.528 74.0762 29.736C74.2202 29.928 74.4122 30.08 74.6522 30.192C74.9082 30.304 75.2202 30.36 75.5882 30.36C76.2762 30.36 76.9562 30.168 77.6282 29.784C78.3002 29.384 78.9242 28.864 79.5002 28.224C80.0762 27.584 80.5642 26.88 80.9642 26.112L81.2522 26.328C80.8202 27.288 80.2682 28.12 79.5962 28.824C78.9402 29.528 78.2202 30.072 77.4362 30.456C76.6682 30.856 75.8842 31.056 75.0842 31.056ZM73.9082 27.024C74.3402 26.88 74.8282 26.672 75.3722 26.4C75.9162 26.112 76.4362 25.776 76.9322 25.392C77.4442 25.008 77.8602 24.584 78.1802 24.12C78.5162 23.656 78.6842 23.168 78.6842 22.656C78.6842 22.48 78.6522 22.344 78.5882 22.248C78.5242 22.152 78.3882 22.104 78.1802 22.104C77.7962 22.104 77.3882 22.256 76.9562 22.56C76.5242 22.848 76.1082 23.232 75.7082 23.712C75.3082 24.192 74.9482 24.72 74.6282 25.296C74.3082 25.872 74.0682 26.448 73.9082 27.024ZM81.9004 30.72C81.6284 30.72 81.3484 30.648 81.0604 30.504C80.7884 30.376 80.5644 30.16 80.3884 29.856C80.1964 29.552 80.1004 29.168 80.1004 28.704C80.1004 28.176 80.2284 27.584 80.4844 26.928C80.7404 26.272 81.0844 25.624 81.5164 24.984C81.9484 24.328 82.4444 23.728 83.0044 23.184C83.5644 22.624 84.1484 22.184 84.7564 21.864C85.3644 21.528 85.9644 21.36 86.5564 21.36C86.8924 21.36 87.1484 21.424 87.3244 21.552C87.5164 21.664 87.6124 21.848 87.6124 22.104C87.6124 22.168 87.6044 22.224 87.5884 22.272C87.5884 22.32 87.5804 22.376 87.5644 22.44C87.4844 22.312 87.3644 22.224 87.2044 22.176C87.0604 22.112 86.8764 22.08 86.6524 22.08C86.1404 22.08 85.6364 22.24 85.1404 22.56C84.6604 22.864 84.2124 23.272 83.7964 23.784C83.3964 24.28 83.0444 24.816 82.7404 25.392C82.4364 25.968 82.1964 26.528 82.0204 27.072C81.8604 27.6 81.7804 28.048 81.7804 28.416C81.7804 28.768 81.8604 29.048 82.0204 29.256C82.1804 29.464 82.3884 29.568 82.6444 29.568C83.0764 29.568 83.5964 29.296 84.2044 28.752C84.8284 28.208 85.4604 27.44 86.1004 26.448C86.7404 25.456 87.3164 24.296 87.8284 22.968C88.1804 22.04 88.5404 21.096 88.9084 20.136C89.2924 19.176 89.6764 18.256 90.0604 17.376C90.4444 16.48 90.8124 15.688 91.1644 15C91.5324 14.296 91.8764 13.744 92.1964 13.344C92.5324 12.928 92.8284 12.72 93.0844 12.72C93.2124 12.72 93.3244 12.776 93.4204 12.888C93.5164 12.984 93.5644 13.112 93.5644 13.272C93.5644 13.528 93.4284 13.968 93.1564 14.592C92.9004 15.2 92.5564 15.936 92.1244 16.8C91.7084 17.648 91.2684 18.576 90.8044 19.584C90.3404 20.592 89.8924 21.616 89.4604 22.656C89.0444 23.696 88.7004 24.704 88.4284 25.68C88.1724 26.64 88.0444 27.52 88.0444 28.32C88.0444 28.768 88.0684 29.104 88.1164 29.328C88.1644 29.552 88.3244 29.664 88.5964 29.664C88.9324 29.664 89.3244 29.52 89.7724 29.232C90.2204 28.944 90.6684 28.536 91.1164 28.008C91.5644 27.48 91.9564 26.848 92.2924 26.112L92.5804 26.328C92.2764 27.144 91.8604 27.88 91.3324 28.536C90.8044 29.176 90.2364 29.68 89.6284 30.048C89.0364 30.432 88.4684 30.624 87.9244 30.624C87.3324 30.624 86.9164 30.424 86.6764 30.024C86.4524 29.64 86.3404 29.24 86.3404 28.824C86.3404 28.552 86.3804 28.192 86.4604 27.744C86.5404 27.296 86.6524 26.8 86.7964 26.256C86.2844 27.104 85.7404 27.872 85.1644 28.56C84.5884 29.232 84.0204 29.76 83.4604 30.144C82.9164 30.528 82.3964 30.72 81.9004 30.72ZM93.2441 30.72C92.9721 30.72 92.6921 30.648 92.4041 30.504C92.1321 30.376 91.9081 30.16 91.7321 29.856C91.5401 29.552 91.4441 29.168 91.4441 28.704C91.4441 28.176 91.5721 27.584 91.8281 26.928C92.0841 26.272 92.4281 25.624 92.8601 24.984C93.2921 24.328 93.7881 23.728 94.3481 23.184C94.9081 22.624 95.4921 22.184 96.1001 21.864C96.7081 21.528 97.3081 21.36 97.9001 21.36C98.2361 21.36 98.4921 21.424 98.6681 21.552C98.8601 21.664 98.9561 21.848 98.9561 22.104C98.9561 22.168 98.9481 22.224 98.9321 22.272C98.9321 22.32 98.9241 22.376 98.9081 22.44C98.8281 22.312 98.7081 22.224 98.5481 22.176C98.4041 22.112 98.2201 22.08 97.9961 22.08C97.4841 22.08 96.9801 22.24 96.4841 22.56C96.0041 22.864 95.5561 23.272 95.1401 23.784C94.7401 24.28 94.3881 24.816 94.0841 25.392C93.7801 25.968 93.5401 26.528 93.3641 27.072C93.2041 27.6 93.1241 28.048 93.1241 28.416C93.1241 28.768 93.2041 29.048 93.3641 29.256C93.5241 29.464 93.7321 29.568 93.9881 29.568C94.4201 29.568 94.9401 29.296 95.5481 28.752C96.1721 28.208 96.8041 27.44 97.4441 26.448C98.0841 25.456 98.6601 24.296 99.1721 22.968C99.5241 22.04 99.8841 21.096 100.252 20.136C100.636 19.176 101.02 18.256 101.404 17.376C101.788 16.48 102.156 15.688 102.508 15C102.876 14.296 103.22 13.744 103.54 13.344C103.876 12.928 104.172 12.72 104.428 12.72C104.556 12.72 104.668 12.776 104.764 12.888C104.86 12.984 104.908 13.112 104.908 13.272C104.908 13.528 104.772 13.968 104.5 14.592C104.244 15.2 103.9 15.936 103.468 16.8C103.052 17.648 102.612 18.576 102.148 19.584C101.684 20.592 101.236 21.616 100.804 22.656C100.388 23.696 100.044 24.704 99.7721 25.68C99.5161 26.64 99.3881 27.52 99.3881 28.32C99.3881 28.768 99.4121 29.104 99.4601 29.328C99.5081 29.552 99.6681 29.664 99.9401 29.664C100.276 29.664 100.668 29.52 101.116 29.232C101.564 28.944 102.012 28.536 102.46 28.008C102.908 27.48 103.3 26.848 103.636 26.112L103.924 26.328C103.62 27.144 103.204 27.88 102.676 28.536C102.148 29.176 101.58 29.68 100.972 30.048C100.38 30.432 99.8121 30.624 99.2681 30.624C98.6761 30.624 98.2601 30.424 98.0201 30.024C97.7961 29.64 97.6841 29.24 97.6841 28.824C97.6841 28.552 97.7241 28.192 97.8041 27.744C97.8841 27.296 97.9961 26.8 98.1401 26.256C97.6281 27.104 97.0841 27.872 96.5081 28.56C95.9321 29.232 95.3641 29.76 94.8041 30.144C94.2601 30.528 93.7401 30.72 93.2441 30.72ZM104.9 30.624C104.276 30.624 103.812 30.424 103.508 30.024C103.204 29.64 103.052 29.168 103.052 28.608C103.052 28.24 103.116 27.776 103.244 27.216C103.388 26.656 103.572 26.072 103.796 25.464C104.02 24.84 104.276 24.256 104.564 23.712C104.868 23.168 105.188 22.728 105.524 22.392C105.86 22.04 106.188 21.864 106.508 21.864C106.652 21.864 106.772 21.912 106.868 22.008C106.98 22.088 107.036 22.216 107.036 22.392C107.036 22.584 106.908 22.896 106.652 23.328C106.412 23.76 106.124 24.256 105.788 24.816C105.452 25.376 105.156 25.968 104.9 26.592C104.66 27.2 104.54 27.784 104.54 28.344C104.54 28.92 104.636 29.304 104.828 29.496C105.02 29.688 105.316 29.784 105.716 29.784C106.26 29.784 106.836 29.512 107.444 28.968C108.068 28.424 108.724 27.472 109.412 26.112L109.628 26.352C109.164 27.728 108.492 28.784 107.612 29.52C106.748 30.256 105.844 30.624 104.9 30.624ZM107.78 19.632C107.524 19.632 107.292 19.568 107.084 19.44C106.892 19.312 106.796 19.112 106.796 18.84C106.796 18.504 106.988 18.216 107.372 17.976C107.772 17.72 108.164 17.592 108.548 17.592C108.788 17.592 108.98 17.648 109.124 17.76C109.268 17.872 109.34 18.064 109.34 18.336C109.34 18.64 109.172 18.936 108.836 19.224C108.516 19.496 108.164 19.632 107.78 19.632ZM116.713 30.48C116.153 30.48 115.729 30.336 115.441 30.048C115.169 29.76 115.033 29.392 115.033 28.944C115.033 28.608 115.089 28.256 115.201 27.888C115.329 27.52 115.449 27.144 115.561 26.76C115.673 26.36 115.729 25.976 115.729 25.608C115.729 25.16 115.633 24.856 115.441 24.696C115.265 24.52 115.041 24.432 114.769 24.432C114.273 24.432 113.769 24.64 113.257 25.056C112.745 25.456 112.249 25.976 111.769 26.616C111.289 27.24 110.841 27.888 110.425 28.56C110.009 29.232 109.641 29.832 109.321 30.36C109.065 30.36 108.825 30.312 108.601 30.216C108.361 30.136 108.177 30.008 108.049 29.832C108.049 29.752 108.137 29.504 108.313 29.088C108.473 28.672 108.665 28.16 108.889 27.552C109.113 26.944 109.313 26.32 109.489 25.68C109.665 25.04 109.753 24.456 109.753 23.928C109.849 23.816 110.001 23.704 110.209 23.592C110.417 23.48 110.633 23.424 110.857 23.424C111.289 23.424 111.505 23.632 111.505 24.048C111.505 24.304 111.433 24.736 111.289 25.344C111.145 25.936 110.961 26.56 110.737 27.216C111.169 26.56 111.649 25.912 112.177 25.272C112.721 24.616 113.297 24.072 113.905 23.64C114.513 23.208 115.121 22.992 115.729 22.992C116.353 22.992 116.801 23.216 117.073 23.664C117.361 24.112 117.505 24.608 117.505 25.152C117.505 25.648 117.425 26.112 117.265 26.544C117.105 26.96 116.937 27.368 116.761 27.768C116.601 28.152 116.521 28.544 116.521 28.944C116.521 29.28 116.585 29.52 116.713 29.664C116.857 29.792 117.033 29.856 117.241 29.856C117.641 29.856 118.041 29.672 118.441 29.304C118.841 28.92 119.225 28.44 119.593 27.864C119.977 27.288 120.313 26.704 120.601 26.112L120.865 26.424C120.529 27.208 120.153 27.904 119.737 28.512C119.321 29.12 118.865 29.6 118.369 29.952C117.873 30.304 117.321 30.48 116.713 30.48ZM121.053 36.72C120.701 36.72 120.381 36.608 120.093 36.384C119.805 36.176 119.661 35.824 119.661 35.328C119.661 34.848 119.813 34.4 120.117 33.984C120.405 33.584 120.781 33.208 121.245 32.856C121.709 32.52 122.213 32.208 122.757 31.92C123.317 31.632 123.845 31.36 124.341 31.104C124.565 30.544 124.773 29.944 124.965 29.304C125.173 28.648 125.373 27.928 125.565 27.144C124.957 28.024 124.317 28.76 123.645 29.352C122.989 29.928 122.325 30.216 121.653 30.216C121.077 30.216 120.629 30 120.309 29.568C120.005 29.136 119.853 28.576 119.853 27.888C119.853 27.056 120.053 26.264 120.453 25.512C120.869 24.76 121.405 24.096 122.061 23.52C122.717 22.944 123.413 22.496 124.149 22.176C124.885 21.84 125.573 21.672 126.213 21.672C126.677 21.672 127.005 21.752 127.197 21.912C127.405 22.056 127.509 22.232 127.509 22.44C127.509 22.584 127.469 22.696 127.389 22.776C127.309 22.856 127.253 22.904 127.221 22.92C127.141 22.792 127.021 22.704 126.861 22.656C126.701 22.592 126.501 22.56 126.261 22.56C125.637 22.56 125.029 22.744 124.437 23.112C123.861 23.48 123.349 23.952 122.901 24.528C122.453 25.104 122.093 25.704 121.821 26.328C121.565 26.936 121.437 27.496 121.437 28.008C121.437 28.392 121.509 28.688 121.653 28.896C121.813 29.088 122.021 29.184 122.277 29.184C122.741 29.184 123.293 28.88 123.933 28.272C124.589 27.648 125.221 26.896 125.829 26.016C125.877 25.792 125.917 25.592 125.949 25.416C125.997 25.24 126.053 25.016 126.117 24.744C126.165 24.52 126.277 24.264 126.453 23.976C126.645 23.672 126.941 23.52 127.341 23.52C127.421 23.52 127.501 23.528 127.581 23.544C127.661 23.544 127.749 23.56 127.845 23.592C127.845 23.848 127.765 24.32 127.605 25.008C127.461 25.68 127.245 26.472 126.957 27.384C126.685 28.28 126.365 29.208 125.997 30.168C126.525 29.912 127.037 29.584 127.533 29.184C128.045 28.784 128.509 28.328 128.925 27.816C129.341 27.288 129.669 26.72 129.909 26.112L130.221 26.352C129.981 27.072 129.597 27.728 129.069 28.32C128.541 28.912 127.973 29.424 127.365 29.856C126.773 30.288 126.229 30.624 125.733 30.864C125.285 31.936 124.813 32.912 124.317 33.792C123.821 34.688 123.301 35.4 122.757 35.928C122.229 36.456 121.661 36.72 121.053 36.72ZM120.981 35.952C121.301 35.952 121.733 35.632 122.277 34.992C122.837 34.368 123.437 33.288 124.077 31.752C123.437 32.072 122.837 32.4 122.277 32.736C121.733 33.088 121.285 33.456 120.933 33.84C120.581 34.224 120.405 34.648 120.405 35.112C120.405 35.368 120.461 35.568 120.573 35.712C120.685 35.872 120.821 35.952 120.981 35.952ZM137.359 30.768C136.671 30.768 136.183 30.552 135.895 30.12C135.607 29.704 135.463 29.192 135.463 28.584C135.463 28.088 135.543 27.576 135.703 27.048C135.863 26.52 136.071 26.024 136.327 25.56C136.599 25.096 136.895 24.72 137.215 24.432C137.551 24.144 137.887 24 138.223 24C138.303 24 138.383 24.016 138.463 24.048C138.559 24.064 138.647 24.088 138.727 24.12C138.583 24.248 138.407 24.488 138.199 24.84C138.007 25.176 137.823 25.568 137.647 26.016C137.471 26.448 137.319 26.88 137.191 27.312C137.079 27.744 137.023 28.112 137.023 28.416C137.023 28.896 137.103 29.248 137.263 29.472C137.423 29.68 137.631 29.784 137.887 29.784C138.223 29.784 138.623 29.608 139.087 29.256C139.551 28.888 140.007 28.424 140.455 27.864C140.007 27.496 139.655 27.016 139.399 26.424C139.159 25.816 139.039 25.2 139.039 24.576C139.039 24.048 139.127 23.552 139.303 23.088C139.495 22.624 139.767 22.256 140.119 21.984C140.471 21.696 140.895 21.552 141.391 21.552C142.047 21.552 142.487 21.728 142.711 22.08C142.935 22.432 143.047 22.872 143.047 23.4C143.047 24.024 142.895 24.72 142.591 25.488C142.287 26.24 141.903 26.968 141.439 27.672C141.727 27.832 142.031 27.912 142.351 27.912C142.607 27.912 142.895 27.864 143.215 27.768C143.535 27.656 143.847 27.472 144.151 27.216C144.471 26.96 144.727 26.616 144.919 26.184L145.207 26.424C144.887 27.176 144.431 27.712 143.839 28.032C143.263 28.336 142.711 28.488 142.183 28.488C141.975 28.488 141.775 28.472 141.583 28.44C141.391 28.392 141.207 28.328 141.031 28.248C140.487 28.968 139.887 29.568 139.231 30.048C138.591 30.528 137.967 30.768 137.359 30.768ZM140.887 27.24C141.287 26.648 141.615 26.032 141.871 25.392C142.143 24.736 142.279 24.12 142.279 23.544C142.279 23.08 142.207 22.744 142.063 22.536C141.935 22.312 141.767 22.2 141.559 22.2C141.239 22.2 140.911 22.432 140.575 22.896C140.239 23.36 140.071 23.944 140.071 24.648C140.071 25.112 140.135 25.584 140.263 26.064C140.407 26.528 140.615 26.92 140.887 27.24ZM144.157 36.72C143.997 36.72 143.813 36.664 143.605 36.552C143.397 36.456 143.221 36.256 143.077 35.952C142.917 35.648 142.837 35.2 142.837 34.608C142.837 33.904 142.957 32.984 143.197 31.848C143.437 30.728 143.765 29.488 144.181 28.128C144.597 26.768 145.077 25.376 145.621 23.952C146.165 22.512 146.749 21.128 147.373 19.8C148.013 18.456 148.661 17.256 149.317 16.2C149.989 15.128 150.645 14.28 151.285 13.656C151.925 13.032 152.533 12.72 153.109 12.72C153.445 12.72 153.661 12.824 153.757 13.032C153.869 13.24 153.925 13.488 153.925 13.776C153.925 14.464 153.733 15.216 153.349 16.032C152.981 16.848 152.485 17.672 151.861 18.504C151.237 19.32 150.549 20.104 149.797 20.856C149.045 21.592 148.285 22.224 147.517 22.752C147.437 22.944 147.357 23.144 147.277 23.352C147.213 23.544 147.141 23.744 147.061 23.952C147.237 23.984 147.373 24.08 147.469 24.24C147.581 24.384 147.645 24.544 147.661 24.72C147.773 25.44 147.893 26.088 148.021 26.664C148.149 27.224 148.341 27.664 148.597 27.984C148.869 28.304 149.253 28.464 149.749 28.464C150.309 28.464 150.781 28.264 151.165 27.864C151.549 27.448 151.965 26.864 152.413 26.112L152.773 26.352C152.373 27.312 151.861 28.008 151.237 28.44C150.629 28.872 150.093 29.088 149.629 29.088C149.341 29.088 149.037 29.016 148.717 28.872C148.413 28.728 148.125 28.536 147.853 28.296C147.853 29.304 147.741 30.304 147.517 31.296C147.309 32.288 147.029 33.192 146.677 34.008C146.325 34.824 145.933 35.48 145.501 35.976C145.069 36.472 144.621 36.72 144.157 36.72ZM144.781 35.568C144.957 35.568 145.157 35.408 145.381 35.088C145.605 34.768 145.821 34.344 146.029 33.816C146.253 33.304 146.453 32.736 146.629 32.112C146.805 31.488 146.949 30.864 147.061 30.24C147.173 29.616 147.229 29.056 147.229 28.56C147.229 28.064 147.165 27.616 147.037 27.216C146.909 26.8 146.701 26.312 146.413 25.752C146.013 26.952 145.653 28.112 145.333 29.232C145.013 30.352 144.765 31.36 144.589 32.256C144.413 33.152 144.325 33.872 144.325 34.416C144.325 35.184 144.477 35.568 144.781 35.568ZM147.901 21.768C148.941 20.808 149.837 19.848 150.589 18.888C151.357 17.912 151.949 17.048 152.365 16.296C152.781 15.528 152.989 14.984 152.989 14.664C152.989 14.44 152.877 14.328 152.653 14.328C152.237 14.328 151.765 14.672 151.237 15.36C150.709 16.032 150.157 16.928 149.581 18.048C149.005 19.168 148.445 20.408 147.901 21.768Z" fill="white"/>
<path d="M1.3125 77.2969C3.59375 77.0312 4.88281 76.8438 5.17969 76.7344C5.38281 76.6562 5.57031 76.4219 5.74219 76.0312V75.7734C5.74219 75.3828 5.80469 73.9688 5.92969 71.5312C5.96094 70.8438 5.97656 70.1719 5.97656 69.5156L5.90625 66.7266L5.95312 63.5625L5.92969 57.6797L5.95312 53.4609C5.96875 51.6797 5.82812 50.5938 5.53125 50.2031C5.25 49.8125 4.50781 49.5391 3.30469 49.3828C2.10156 49.2109 1.4375 49.0859 1.3125 49.0078C1.1875 48.9297 1.125 48.8047 1.125 48.6328C1.125 48.5234 1.14844 48.3828 1.19531 48.2109C1.35156 48.0703 1.71094 47.9922 2.27344 47.9766C2.35156 47.9766 2.5625 47.9609 2.90625 47.9297C3.26562 47.8828 3.60156 47.8594 3.91406 47.8594H5.83594L12 47.7891C15.4844 47.7891 17.9219 48.0469 19.3125 48.5625C20.7188 49.0781 21.8359 49.9531 22.6641 51.1875C23.4922 52.4062 23.9062 53.7734 23.9062 55.2891C23.9062 58.1641 22.3984 60.3594 19.3828 61.875C18.8672 62.1406 18.4609 62.375 18.1641 62.5781C18.6953 63.7031 19.4375 65.0547 20.3906 66.6328L23.3672 71.7422C24.5547 73.6172 25.375 74.7969 25.8281 75.2812C26.2812 75.75 26.8281 76.1406 27.4688 76.4531C28.125 76.7656 29.2188 77.0625 30.75 77.3438C30.7656 77.5 30.7734 77.625 30.7734 77.7188C30.7734 77.8125 30.7656 77.9297 30.75 78.0703C28.6094 78.1016 26.1016 78.1172 23.2266 78.1172C23.0234 78.1172 22.7422 78.1016 22.3828 78.0703C21.2734 75.9453 19.9688 73.6094 18.4688 71.0625L15 64.7344C14.5312 64.0781 14.1406 63.6719 13.8281 63.5156C13.5312 63.3438 13.1328 63.2578 12.6328 63.2578L10.6406 63.2812L9.98438 63.2578C9.9375 63.7578 9.91406 64.7812 9.91406 66.3281V74.3438C9.89844 74.6406 9.96094 75.0547 10.1016 75.5859C10.2266 75.8828 10.4375 76.125 10.7344 76.3125C11.0469 76.4844 11.9297 76.75 13.3828 77.1094L14.3438 77.3438C14.4688 77.5 14.5312 77.7109 14.5312 77.9766C14.1094 78.0547 13.8125 78.0938 13.6406 78.0938C12.2344 78.0938 11.2422 78.0781 10.6641 78.0469C10.3672 78.0312 10.125 78.0234 9.9375 78.0234L6.75 78.0703L3.63281 78.0469C3.49219 78.0469 2.78125 78.0703 1.5 78.1172L1.03125 78.0234L0.984375 77.7891C0.984375 77.6484 1.09375 77.4844 1.3125 77.2969ZM10.0312 61.9688C10.4531 61.9844 10.7656 61.9922 10.9688 61.9922C12.0938 61.9922 13.3906 61.8594 14.8594 61.5938C15.8906 61.3906 16.7266 61.0625 17.3672 60.6094C18.0078 60.1406 18.5391 59.4531 18.9609 58.5469C19.3984 57.6406 19.6172 56.7031 19.6172 55.7344C19.6172 54.6719 19.2812 53.5469 18.6094 52.3594C18.0938 51.4531 17.2188 50.6953 15.9844 50.0859C14.7656 49.4766 13.2969 49.1719 11.5781 49.1719C11.1562 49.1719 10.6094 49.1953 9.9375 49.2422C9.875 50.0547 9.84375 50.6797 9.84375 51.1172L9.96094 55.5L9.9375 57.3047C9.9375 58.5234 9.96875 60.0781 10.0312 61.9688ZM30.9844 63.0234C30.9844 61.4297 31.1719 60.0156 31.5469 58.7812C31.9375 57.5312 32.5859 56.1797 33.4922 54.7266C34.3984 53.2734 35.4922 52.0625 36.7734 51.0938C38.0547 50.1094 39.8281 49.2422 42.0938 48.4922C43.6875 47.9766 45.7031 47.7188 48.1406 47.7188C49.7812 47.7188 51.3828 47.9375 52.9453 48.375C54.5234 48.8125 55.9531 49.4219 57.2344 50.2031C58.5156 50.9844 59.7969 52.1875 61.0781 53.8125C61.9688 54.9375 62.6406 56.1484 63.0938 57.4453C63.6875 59.1484 63.9844 60.9062 63.9844 62.7188C63.9844 64.7812 63.7812 66.4922 63.375 67.8516C62.9844 69.2109 62.3203 70.5547 61.3828 71.8828C60.6484 72.9141 59.3906 74.1016 57.6094 75.4453C56.4219 76.3516 54.9453 77.0859 53.1797 77.6484C51.4141 78.1953 49.5078 78.4688 47.4609 78.4688C45.3828 78.4688 43.5312 78.2266 41.9062 77.7422C40.2812 77.2578 38.9219 76.6719 37.8281 75.9844C36.75 75.2812 35.6328 74.25 34.4766 72.8906C33.3359 71.5312 32.4688 70.0312 31.875 68.3906C31.2812 66.75 30.9844 64.9609 30.9844 63.0234ZM47.25 77.6016C48.5625 77.6016 49.9219 77.4219 51.3281 77.0625C52.75 76.6875 54.0078 76.0781 55.1016 75.2344C56.1953 74.375 57.0469 73.4062 57.6562 72.3281C58.2812 71.2344 58.7812 69.8359 59.1562 68.1328C59.5312 66.4297 59.7188 64.7266 59.7188 63.0234C59.7188 60.8984 59.4062 58.7969 58.7812 56.7188C58.2969 55.1406 57.5078 53.7344 56.4141 52.5C55.3203 51.25 54 50.2891 52.4531 49.6172C50.9062 48.9297 49.2578 48.5859 47.5078 48.5859C46.0859 48.5859 44.6953 48.8203 43.3359 49.2891C41.9766 49.7578 40.8594 50.3594 39.9844 51.0938C39.1094 51.8125 38.2969 52.8438 37.5469 54.1875C36.7969 55.5156 36.2266 56.9844 35.8359 58.5938C35.4453 60.2031 35.25 61.625 35.25 62.8594C35.25 64.1562 35.4453 65.625 35.8359 67.2656C36.2266 68.9062 36.7578 70.3281 37.4297 71.5312C38.1172 72.7344 38.9531 73.8047 39.9375 74.7422C40.9375 75.6641 42.0547 76.375 43.2891 76.875C44.5234 77.3594 45.8438 77.6016 47.25 77.6016ZM66.9141 48.9609V48.2344C67.1797 48.1719 67.3906 48.1328 67.5469 48.1172L69.75 48C71.5781 47.8438 73.625 47.7188 75.8906 47.625C76.7969 47.5938 78.2266 47.5781 80.1797 47.5781C82.8359 47.5781 84.7812 47.7734 86.0156 48.1641C87.8125 48.7422 89.1484 49.6172 90.0234 50.7891C90.9141 51.9453 91.3594 53.2344 91.3594 54.6562C91.3594 56.9688 89.7109 58.9141 86.4141 60.4922L86.2969 60.6797C87.9844 61.1328 89.3672 61.7656 90.4453 62.5781C91.5234 63.3906 92.3516 64.3828 92.9297 65.5547C93.3516 66.4141 93.5625 67.5391 93.5625 68.9297C93.5625 71.2578 92.5 73.3359 90.375 75.1641C88.2656 76.9766 85.3516 77.8828 81.6328 77.8828H78.1406L74.6016 78C71.4766 78.0312 69.6484 78.0469 69.1172 78.0469C68.5703 78.0469 68.0312 78.0234 67.5 77.9766V77.7188C67.5 77.5312 67.5391 77.3984 67.6172 77.3203C67.7109 77.2266 67.8906 77.1484 68.1562 77.0859C70.1094 76.6797 71.2109 76.4062 71.4609 76.2656C71.7266 76.1094 71.9062 75.8672 72 75.5391C72.1875 74.9141 72.2812 73.3047 72.2812 70.7109C72.2812 70.4766 72.2734 70.1797 72.2578 69.8203C72.2266 68.7734 72.2109 68.1719 72.2109 68.0156V65.5781C72.2109 61.4531 72.1641 57.8516 72.0703 54.7734L72.0469 50.0625L72.0234 49.4766C70.6953 49.2891 69.5234 49.1719 68.5078 49.125C67.8516 49.1094 67.3203 49.0547 66.9141 48.9609ZM76.2188 60.8203C77 60.9766 77.8203 61.0547 78.6797 61.0547C82.0547 61.0547 84.3438 60.3125 85.5469 58.8281C86.75 57.3438 87.3516 55.8672 87.3516 54.3984C87.3516 53.7422 87.2422 53.0781 87.0234 52.4062C86.8203 51.7188 86.4453 51.1016 85.8984 50.5547C85.3672 50.0078 84.7031 49.6016 83.9062 49.3359C82.5469 48.8828 81.1562 48.6562 79.7344 48.6562C78.4062 48.6562 77.1719 48.8047 76.0312 49.1016C76.0156 49.4297 76.0078 49.6719 76.0078 49.8281C76.0078 49.9844 76.0234 50.4297 76.0547 51.1641C76.0703 51.6328 76.0781 52.1016 76.0781 52.5703L76.0078 55.4062L76.0312 57.0938L76.1953 60.3984L76.2188 60.8203ZM81.7266 76.7578C83.2734 76.6484 84.5703 76.3203 85.6172 75.7734C86.1016 75.5234 86.6719 75.0781 87.3281 74.4375C88 73.7812 88.5156 73 88.875 72.0938C89.25 71.1875 89.4375 70.3125 89.4375 69.4688C89.4375 68.8281 89.3047 68.0391 89.0391 67.1016C88.7891 66.1641 88.3516 65.3438 87.7266 64.6406C87.1172 63.9219 86.2031 63.3359 84.9844 62.8828C83.7656 62.4141 82.4219 62.1797 80.9531 62.1797C78.1094 62.1797 76.5156 62.2344 76.1719 62.3438C76.1562 62.7031 76.1484 62.9688 76.1484 63.1406L76.1719 64.0078L76.1484 65.7656V67.7578C76.1953 71.4297 76.2812 73.6016 76.4062 74.2734C76.5312 74.9453 76.9531 75.5234 77.6719 76.0078C78.4062 76.4922 79.7578 76.7422 81.7266 76.7578ZM96.9844 77.625C97.1406 77.4844 97.2734 77.3984 97.3828 77.3672C97.6484 77.2891 98.1016 77.2266 98.7422 77.1797C100.258 77.0859 101.195 76.9453 101.555 76.7578C101.773 76.4453 101.883 76.0078 101.883 75.4453L101.859 73.8047L101.883 67.8516L101.836 65.0391L101.859 59.1562L101.742 52.4766C101.727 50.8828 101.625 49.9844 101.438 49.7812C101.156 49.4844 100.32 49.3125 98.9297 49.2656C98.3359 49.25 97.8125 49.2031 97.3594 49.125C97.1562 49.0156 97.0547 48.875 97.0547 48.7031C97.0547 48.5781 97.0938 48.4297 97.1719 48.2578C97.3125 48.1797 97.4375 48.1406 97.5469 48.1406C97.7656 48.1406 98.0312 48.1484 98.3438 48.1641C99.2656 48.2422 100.219 48.2812 101.203 48.2812L102.938 48.2344L107.062 48.3281C109.125 48.3281 110.734 48.3047 111.891 48.2578C113.047 48.2109 113.828 48.1875 114.234 48.1875C114.594 48.1875 115.484 48.2188 116.906 48.2812L120.234 48.2578L120.633 48.3281L122.578 48.2578L122.812 48.375C122.891 48.5 122.945 48.6328 122.977 48.7734C122.977 48.9922 122.938 49.3281 122.859 49.7812C122.797 50.2344 122.766 50.5156 122.766 50.625C122.766 52.25 122.82 53.625 122.93 54.75C122.914 54.8438 122.867 54.9062 122.789 54.9375C122.617 54.9375 122.461 54.9141 122.32 54.8672C122.148 54.5703 121.914 54.0469 121.617 53.2969C121.336 52.5469 120.906 51.6797 120.328 50.6953C119.938 50.0391 119.633 49.6484 119.414 49.5234C119.195 49.3984 118.742 49.3359 118.055 49.3359C117.914 49.3359 117.203 49.3203 115.922 49.2891C115.578 49.2734 115.242 49.2656 114.914 49.2656L108.234 49.4062H107.648C106.789 49.4062 106.273 49.5156 106.102 49.7344C105.836 50.1094 105.703 51.2109 105.703 53.0391C105.703 53.2266 105.742 55.1016 105.82 58.6641V61.9219C105.992 61.9688 106.18 61.9922 106.383 61.9922H106.781C107.047 61.9922 107.438 62 107.953 62.0156C108.766 62.0469 109.312 62.0625 109.594 62.0625C109.781 62.0625 109.945 62.0547 110.086 62.0391C111.773 61.9766 113.945 61.9453 116.602 61.9453C117.43 61.8047 117.914 61.6406 118.055 61.4531C118.289 61.1719 118.461 60.4375 118.57 59.25C118.695 58.0625 118.961 57.3906 119.367 57.2344C119.57 57.2344 119.758 57.2734 119.93 57.3516C119.961 57.4766 119.977 57.5938 119.977 57.7031C119.977 57.8125 119.961 57.9922 119.93 58.2422C119.852 58.8203 119.812 60.6328 119.812 63.6797C119.812 64.4922 119.852 65.3984 119.93 66.3984C120.023 67.3984 120.07 67.9375 120.07 68.0156C120.07 68.1562 120.047 68.3438 120 68.5781C119.875 68.6406 119.773 68.6719 119.695 68.6719H119.531C119.281 68.2344 119.039 67.5547 118.805 66.6328C118.398 65.0547 117.969 64.0703 117.516 63.6797C117.078 63.2734 116.359 63.0703 115.359 63.0703C115.141 63.0703 114.742 63.0859 114.164 63.1172C113.586 63.1328 112.727 63.1406 111.586 63.1406H110.062C107.891 63.1406 106.469 63.1875 105.797 63.2812L105.773 64.0547L105.797 68.3672L105.773 71.0859L105.797 73.7344C105.812 75.3281 105.914 76.25 106.102 76.5C106.367 76.8438 106.945 77.0156 107.836 77.0156L109.266 76.9922C109.391 76.9922 109.875 77.0078 110.719 77.0391C111.578 77.0547 112.633 77.0625 113.883 77.0625C116.898 77.0625 118.906 76.9375 119.906 76.6875C120.906 76.4219 121.727 75.9609 122.367 75.3047C123.023 74.6484 123.844 73.2344 124.828 71.0625C125.125 70.4219 125.422 70.1016 125.719 70.1016C125.859 70.1016 126.016 70.1641 126.188 70.2891C125.734 71.8359 125.477 72.8516 125.414 73.3359C125.242 74.4297 125.141 75.5469 125.109 76.6875C125.109 77.2031 124.984 77.6328 124.734 77.9766H124.219L117.633 78.0469L114.68 78.0234L107.648 78.1172H104.789C104.43 78.1172 104.094 78.125 103.781 78.1406C100.969 78.2656 98.8984 78.3281 97.5703 78.3281C97.3359 78.3281 97.1719 78.2891 97.0781 78.2109C97 78.1328 96.9609 78.0156 96.9609 77.8594L96.9844 77.625ZM128.625 77.2969C130.906 77.0312 132.195 76.8438 132.492 76.7344C132.695 76.6562 132.883 76.4219 133.055 76.0312V75.7734C133.055 75.3828 133.117 73.9688 133.242 71.5312C133.273 70.8438 133.289 70.1719 133.289 69.5156L133.219 66.7266L133.266 63.5625L133.242 57.6797L133.266 53.4609C133.281 51.6797 133.141 50.5938 132.844 50.2031C132.562 49.8125 131.82 49.5391 130.617 49.3828C129.414 49.2109 128.75 49.0859 128.625 49.0078C128.5 48.9297 128.438 48.8047 128.438 48.6328C128.438 48.5234 128.461 48.3828 128.508 48.2109C128.664 48.0703 129.023 47.9922 129.586 47.9766C129.664 47.9766 129.875 47.9609 130.219 47.9297C130.578 47.8828 130.914 47.8594 131.227 47.8594H133.148L139.312 47.7891C142.797 47.7891 145.234 48.0469 146.625 48.5625C148.031 49.0781 149.148 49.9531 149.977 51.1875C150.805 52.4062 151.219 53.7734 151.219 55.2891C151.219 58.1641 149.711 60.3594 146.695 61.875C146.18 62.1406 145.773 62.375 145.477 62.5781C146.008 63.7031 146.75 65.0547 147.703 66.6328L150.68 71.7422C151.867 73.6172 152.688 74.7969 153.141 75.2812C153.594 75.75 154.141 76.1406 154.781 76.4531C155.438 76.7656 156.531 77.0625 158.062 77.3438C158.078 77.5 158.086 77.625 158.086 77.7188C158.086 77.8125 158.078 77.9297 158.062 78.0703C155.922 78.1016 153.414 78.1172 150.539 78.1172C150.336 78.1172 150.055 78.1016 149.695 78.0703C148.586 75.9453 147.281 73.6094 145.781 71.0625L142.312 64.7344C141.844 64.0781 141.453 63.6719 141.141 63.5156C140.844 63.3438 140.445 63.2578 139.945 63.2578L137.953 63.2812L137.297 63.2578C137.25 63.7578 137.227 64.7812 137.227 66.3281V74.3438C137.211 74.6406 137.273 75.0547 137.414 75.5859C137.539 75.8828 137.75 76.125 138.047 76.3125C138.359 76.4844 139.242 76.75 140.695 77.1094L141.656 77.3438C141.781 77.5 141.844 77.7109 141.844 77.9766C141.422 78.0547 141.125 78.0938 140.953 78.0938C139.547 78.0938 138.555 78.0781 137.977 78.0469C137.68 78.0312 137.438 78.0234 137.25 78.0234L134.062 78.0703L130.945 78.0469C130.805 78.0469 130.094 78.0703 128.812 78.1172L128.344 78.0234L128.297 77.7891C128.297 77.6484 128.406 77.4844 128.625 77.2969ZM137.344 61.9688C137.766 61.9844 138.078 61.9922 138.281 61.9922C139.406 61.9922 140.703 61.8594 142.172 61.5938C143.203 61.3906 144.039 61.0625 144.68 60.6094C145.32 60.1406 145.852 59.4531 146.273 58.5469C146.711 57.6406 146.93 56.7031 146.93 55.7344C146.93 54.6719 146.594 53.5469 145.922 52.3594C145.406 51.4531 144.531 50.6953 143.297 50.0859C142.078 49.4766 140.609 49.1719 138.891 49.1719C138.469 49.1719 137.922 49.1953 137.25 49.2422C137.188 50.0547 137.156 50.6797 137.156 51.1172L137.273 55.5L137.25 57.3047C137.25 58.5234 137.281 60.0781 137.344 61.9688ZM157.5 51.5156L158.461 47.9766C158.523 47.5078 158.609 47.2109 158.719 47.0859C158.828 46.9453 158.953 46.875 159.094 46.875C159.375 46.875 159.695 47.2109 160.055 47.8828C160.32 48.3672 160.539 48.6797 160.711 48.8203C160.883 48.9453 161.133 49.0312 161.461 49.0781L161.695 49.0547L162.703 49.1484L168.234 49.2188L174.773 49.1953H176.695L180.328 49.125C180.484 49.125 180.68 49.1406 180.914 49.1719C181.977 49.2656 182.633 49.3125 182.883 49.3125C183.117 49.3125 183.305 49.2344 183.445 49.0781C183.492 49.0156 183.75 48.4844 184.219 47.4844C184.422 47.0312 184.672 46.8047 184.969 46.8047C185.094 46.8047 185.25 46.8359 185.438 46.8984C185.516 47.2109 185.555 47.4922 185.555 47.7422L185.531 48.6797L185.555 50.6719C185.555 51.1562 185.516 52.7188 185.438 55.3594C185.438 55.5312 185.406 55.6875 185.344 55.8281C185.172 55.9375 185.023 55.9922 184.898 55.9922C184.773 55.9922 184.664 55.9375 184.57 55.8281C184.477 55.7031 184.359 55.3359 184.219 54.7266C183.906 53.3203 183.516 52.3125 183.047 51.7031C182.734 51.3125 182.281 51.0312 181.688 50.8594C181.109 50.6875 179.711 50.6016 177.492 50.6016C175.711 50.6016 174.391 50.6328 173.531 50.6953C173.5 51.3203 173.484 51.8906 173.484 52.4062L173.672 66.9609C173.672 67.5391 173.641 68.6328 173.578 70.2422L173.602 73.3594L173.578 75.0938C173.578 75.6406 173.672 76.0312 173.859 76.2656C174.047 76.5 174.555 76.7266 175.383 76.9453C176.82 77.3047 177.781 77.5234 178.266 77.6016C178.562 77.6328 178.805 77.6953 178.992 77.7891V78.4922L175.664 78.3984C173.836 78.3828 172.461 78.3438 171.539 78.2812L168.117 78.4453L165.609 78.5859C164.906 78.5859 164.477 78.5703 164.32 78.5391L163.992 78.3984C164.023 78.0391 164.094 77.8125 164.203 77.7188C164.312 77.6094 164.602 77.5234 165.07 77.4609C165.727 77.3672 166.5 77.2031 167.391 76.9688C168.281 76.7188 168.867 76.4688 169.148 76.2188C169.305 76.0781 169.414 75.8438 169.477 75.5156C169.617 74.8281 169.688 73.4766 169.688 71.4609V67.4766L169.594 58.7812L169.5 56.9062L169.477 50.6484C168.492 50.5391 167.234 50.4844 165.703 50.4844C163.453 50.4844 162.086 50.625 161.602 50.9062C160.836 51.3438 159.695 52.625 158.18 54.75C157.68 55.5469 157.242 55.9453 156.867 55.9453L156.656 55.8984C156.594 55.8047 156.562 55.7188 156.562 55.6406C156.562 55.4531 156.688 54.8906 156.938 53.9531C157.25 52.75 157.438 51.9375 157.5 51.5156ZM228.82 49.0781C228.945 50.1094 229.008 50.7031 229.008 50.8594L228.914 52.9453C228.883 53.8359 228.844 54.4062 228.797 54.6562C228.656 54.7188 228.539 54.75 228.445 54.75L228.234 54.7031C227.734 52.5156 226.883 50.9219 225.68 49.9219C224.492 48.9219 223.039 48.4219 221.32 48.4219C219.539 48.4219 218.078 48.9219 216.938 49.9219C215.797 50.9219 215.227 52.0859 215.227 53.4141C215.227 54.4297 215.625 55.3594 216.422 56.2031C217.219 57.0469 219.258 58.3125 222.539 60C225.039 61.2969 226.828 62.3594 227.906 63.1875C228.984 64 229.797 64.9453 230.344 66.0234C230.891 67.1016 231.164 68.3047 231.164 69.6328C231.164 71.3047 230.727 72.875 229.852 74.3438C228.992 75.8125 227.828 76.9219 226.359 77.6719C224.891 78.4062 222.945 78.7734 220.523 78.7734C218.414 78.7734 216.391 78.4375 214.453 77.7656C213.312 77.3594 212.617 77.0312 212.367 76.7812C212.117 76.5312 211.992 76.2656 211.992 75.9844C211.992 75.8125 212.008 75.5938 212.039 75.3281C212.258 73.4844 212.375 71.9688 212.391 70.7812C212.422 70.0469 212.477 69.6172 212.555 69.4922C212.617 69.3828 212.734 69.3281 212.906 69.3281C213.047 69.3281 213.156 69.3828 213.234 69.4922C213.328 69.5859 213.391 69.7734 213.422 70.0547C213.594 71.9766 214.484 73.6953 216.094 75.2109C217.688 76.7266 219.492 77.4844 221.508 77.4844C222.742 77.4844 223.875 77.2266 224.906 76.7109C225.953 76.1953 226.766 75.4531 227.344 74.4844C227.938 73.5 228.234 72.5469 228.234 71.625C228.234 70.3594 227.789 69.2031 226.898 68.1562C226.008 67.1094 224.219 65.8906 221.531 64.5C218.844 63.0938 217.094 62.0703 216.281 61.4297C214.969 60.3828 213.984 59.2734 213.328 58.1016C212.844 57.1953 212.602 56.1406 212.602 54.9375C212.602 52.7656 213.461 50.9297 215.18 49.4297C216.898 47.9141 219.203 47.1562 222.094 47.1562C223.688 47.1562 225.062 47.3359 226.219 47.6953C227.062 47.9766 227.93 48.4375 228.82 49.0781ZM232.945 77.25C233.164 77.125 233.359 77.0625 233.531 77.0625H234.07C234.18 77.0625 234.367 77.0547 234.633 77.0391C235.836 76.9297 236.547 76.8203 236.766 76.7109C237.312 76.4141 237.781 75.8984 238.172 75.1641C238.984 73.5703 239.898 71.3125 240.914 68.3906C241.398 67 241.703 66.1562 241.828 65.8594C242.219 64.9219 242.594 63.9375 242.953 62.9062L245.156 56.7422C245.5 55.7734 246.328 53.5547 247.641 50.0859C247.969 49.2109 248.367 48.0391 248.836 46.5703L249.516 46.5234L250.336 46.5469C251.008 47.875 251.602 49.3047 252.117 50.8359C252.398 51.6484 252.859 52.8594 253.5 54.4688L257.062 64.1016L258.961 69.3281C259.961 72.2969 260.617 74.125 260.93 74.8125C261.242 75.4844 261.531 75.9297 261.797 76.1484C261.875 76.2109 262.164 76.3047 262.664 76.4297C263.18 76.5547 263.539 76.6484 263.742 76.7109C264.461 76.9141 264.961 77.0859 265.242 77.2266C265.305 77.3984 265.336 77.5312 265.336 77.625C265.336 77.7031 265.312 77.8203 265.266 77.9766C264.766 77.9922 264.414 78 264.211 78C263.414 78 262.008 77.9766 259.992 77.9297L257.648 77.8594L254.812 77.9062C254.625 77.9062 254.43 77.8984 254.227 77.8828C254.039 77.8516 253.875 77.8359 253.734 77.8359H253.219C253.047 77.8203 252.891 77.7734 252.75 77.6953C252.75 77.4766 252.789 77.2656 252.867 77.0625C253.055 76.9688 253.227 76.9141 253.383 76.8984L255.844 76.7344C256.484 76.7031 256.969 76.6172 257.297 76.4766C257.391 76.1953 257.438 75.9844 257.438 75.8438C257.438 75.5625 257.234 74.8359 256.828 73.6641C256.547 72.8828 256.297 72.1406 256.078 71.4375C255.875 70.7344 255.047 68.4219 253.594 64.5C252.953 64.3906 252.391 64.3359 251.906 64.3359L246.891 64.3828L245.414 64.3594C244.883 64.3594 244.297 64.3984 243.656 64.4766C243.453 64.9453 243.32 65.2812 243.258 65.4844L241.195 71.9297C240.32 74.3828 239.883 75.7344 239.883 75.9844C239.883 76.125 239.953 76.3594 240.094 76.6875C240.422 76.7812 240.859 76.8672 241.406 76.9453L244.594 77.2266C244.766 77.3672 244.852 77.4922 244.852 77.6016C244.852 77.6797 244.828 77.7969 244.781 77.9531C244.078 77.9688 243.539 77.9766 243.164 77.9766C241.914 77.9766 240.461 77.9375 238.805 77.8594C238.039 77.8281 237.492 77.8125 237.164 77.8125C236.836 77.8125 236.266 77.8281 235.453 77.8594C234.922 77.8906 234.539 77.9062 234.305 77.9062C233.93 77.9062 233.445 77.8828 232.852 77.8359V77.6953C232.852 77.5859 232.883 77.4375 232.945 77.25ZM244.125 63.1875C245.797 63.2812 247.703 63.3281 249.844 63.3281C251.062 63.3281 252.133 63.2891 253.055 63.2109C252.898 62.6016 252.719 62.0312 252.516 61.5C251.5 58.7812 250.938 57.2812 250.828 57L248.695 51.5859L248.461 51.1641C248.367 51.3516 248.023 52.1562 247.43 53.5781C246.43 56.0156 245.711 57.9141 245.273 59.2734C245.07 59.8828 244.859 60.4922 244.641 61.1016C244.422 61.6953 244.281 62.1172 244.219 62.3672C244.172 62.6016 244.094 62.8438 243.984 63.0938L244.125 63.1875ZM266.367 49.3359L266.344 48.2109C268.766 48.2109 270.539 48.1484 271.664 48.0234C272.102 47.9766 272.406 47.9531 272.578 47.9531C272.719 47.9531 272.93 47.9609 273.211 47.9766C273.867 48.5234 274.477 49.1484 275.039 49.8516C275.164 49.9922 275.305 50.1484 275.461 50.3203L280.406 55.7812L281.109 56.625C282.109 57.7969 283.016 58.7969 283.828 59.625C284.656 60.4531 286.258 62.1797 288.633 64.8047L294.234 71.0156C294.781 71.625 295.484 72.3828 296.344 73.2891L296.367 72.9141C296.273 70.7422 296.227 69.5938 296.227 69.4688L296.32 68.0625L296.273 65.8594V64.8516C296.273 64.2109 296.219 62.2344 296.109 58.9219C296.094 58.4688 296.031 57.6172 295.922 56.3672C295.812 55.1016 295.758 53.9922 295.758 53.0391C295.758 51.3203 295.656 50.3203 295.453 50.0391C295.312 49.8359 294.648 49.625 293.461 49.4062C293.18 49.3906 292.742 49.3438 292.148 49.2656C291.445 49.2344 291.031 49.1953 290.906 49.1484C290.781 49.1016 290.656 48.9688 290.531 48.75C290.562 48.5 290.633 48.2656 290.742 48.0469C291.164 47.9219 291.578 47.8594 291.984 47.8594C292.422 47.8594 292.961 47.9141 293.602 48.0234C294.258 48.1328 294.844 48.1875 295.359 48.1875C296.078 48.1875 297.195 48.1406 298.711 48.0469C299.57 47.9844 300.164 47.9531 300.492 47.9531H300.891L300.844 48.6797C300.594 48.7891 300.25 48.8594 299.812 48.8906C299.375 48.9062 298.969 48.9688 298.594 49.0781C298.031 49.25 297.695 49.3984 297.586 49.5234C297.211 49.9297 297.023 50.3438 297.023 50.7656L297.281 58.1719L297.469 61.5703L297.445 62.5547L297.586 67.2656C297.68 70.4844 297.727 73.2812 297.727 75.6562C297.727 76.1719 297.695 77.2891 297.633 79.0078L296.531 79.1016C295.984 78.4766 294.102 76.5078 290.883 73.1953C290.133 72.4297 289.625 71.8906 289.359 71.5781L287.344 69.2578C286.562 68.3984 286.055 67.8516 285.82 67.6172C285.586 67.3828 285.414 67.2109 285.305 67.1016C283.602 65.1641 281.391 62.7422 278.672 59.8359C277.938 59.0547 276.859 57.8359 275.438 56.1797C274.547 55.1328 273.984 54.4922 273.75 54.2578C273.516 54.0234 273.195 53.7578 272.789 53.4609L272.719 54.2578C272.719 57.3047 272.797 61.5078 272.953 66.8672L273.117 74.625C273.133 75.2812 273.172 75.9141 273.234 76.5234L274.055 76.7109C275.539 76.8516 277 77.0625 278.438 77.3438C278.547 77.4375 278.641 77.5078 278.719 77.5547L278.695 78.4453C278.445 78.5234 278.242 78.5625 278.086 78.5625C277.914 78.5625 277.703 78.5469 277.453 78.5156C275.906 78.3906 274.023 78.3281 271.805 78.3281C270.242 78.3281 268.867 78.3672 267.68 78.4453L267.352 78.4688C267.211 78.4688 267.008 78.4531 266.742 78.4219L266.719 77.7188L267.328 77.4375L268.43 77.2734C269.414 77.1328 270.133 76.9766 270.586 76.8047C270.883 76.6953 271.125 76.5312 271.312 76.3125C271.484 75.2344 271.57 73.6562 271.57 71.5781C271.57 70.6094 271.547 68.8359 271.5 66.2578V63.0703L271.453 56.4141C271.422 53.4453 271.32 51.6953 271.148 51.1641C271.055 50.8828 270.859 50.6328 270.562 50.4141C269.969 49.9922 269.188 49.7266 268.219 49.6172C267.266 49.5078 266.648 49.4141 266.367 49.3359ZM303.773 77.25C304.117 77.1094 304.469 77.0234 304.828 76.9922C307.219 76.8359 308.586 76.5547 308.93 76.1484C309.273 75.7266 309.445 73.7188 309.445 70.125L309.422 67.6641V65.0859L309.328 62.25L309.375 60.5859L309.352 58.7578V56.6016L309.305 55.6406L309.352 54.4219C309.367 54.1406 309.375 53.8125 309.375 53.4375C309.375 52.4531 309.328 51.4141 309.234 50.3203C309.172 50.1016 309.086 49.8906 308.977 49.6875C308.398 49.3906 307.461 49.1953 306.164 49.1016C304.883 48.9922 304.156 48.875 303.984 48.75C303.859 48.6562 303.789 48.4141 303.773 48.0234H305.742L311.953 48.1641C313.547 48.1641 315.672 48.1172 318.328 48.0234C318.328 48.2734 318.312 48.5078 318.281 48.7266C317.969 48.8047 317.445 48.8906 316.711 48.9844C315.227 49.1562 314.32 49.3203 313.992 49.4766C313.789 49.5547 313.641 49.6875 313.547 49.875C313.391 50.1562 313.297 50.6797 313.266 51.4453L313.148 54.4688L313.242 64.8984V69.0234C313.211 70.3203 313.195 71.2031 313.195 71.6719C313.195 73.4219 313.234 74.5391 313.312 75.0234C313.406 75.5078 313.555 75.8594 313.758 76.0781C313.977 76.2812 314.328 76.4453 314.812 76.5703C315.531 76.7422 316.094 76.8359 316.5 76.8516C317.375 76.8828 317.93 77.0078 318.164 77.2266C318.211 77.4297 318.234 77.6016 318.234 77.7422V77.9297C316.812 77.9766 315.766 78 315.094 78C314.703 78 314.008 77.9766 313.008 77.9297L309.773 77.9766L304.266 77.9531H303.82L303.773 77.25ZM319.523 77.25C319.742 77.125 319.938 77.0625 320.109 77.0625H320.648C320.758 77.0625 320.945 77.0547 321.211 77.0391C322.414 76.9297 323.125 76.8203 323.344 76.7109C323.891 76.4141 324.359 75.8984 324.75 75.1641C325.562 73.5703 326.477 71.3125 327.492 68.3906C327.977 67 328.281 66.1562 328.406 65.8594C328.797 64.9219 329.172 63.9375 329.531 62.9062L331.734 56.7422C332.078 55.7734 332.906 53.5547 334.219 50.0859C334.547 49.2109 334.945 48.0391 335.414 46.5703L336.094 46.5234L336.914 46.5469C337.586 47.875 338.18 49.3047 338.695 50.8359C338.977 51.6484 339.438 52.8594 340.078 54.4688L343.641 64.1016L345.539 69.3281C346.539 72.2969 347.195 74.125 347.508 74.8125C347.82 75.4844 348.109 75.9297 348.375 76.1484C348.453 76.2109 348.742 76.3047 349.242 76.4297C349.758 76.5547 350.117 76.6484 350.32 76.7109C351.039 76.9141 351.539 77.0859 351.82 77.2266C351.883 77.3984 351.914 77.5312 351.914 77.625C351.914 77.7031 351.891 77.8203 351.844 77.9766C351.344 77.9922 350.992 78 350.789 78C349.992 78 348.586 77.9766 346.57 77.9297L344.227 77.8594L341.391 77.9062C341.203 77.9062 341.008 77.8984 340.805 77.8828C340.617 77.8516 340.453 77.8359 340.312 77.8359H339.797C339.625 77.8203 339.469 77.7734 339.328 77.6953C339.328 77.4766 339.367 77.2656 339.445 77.0625C339.633 76.9688 339.805 76.9141 339.961 76.8984L342.422 76.7344C343.062 76.7031 343.547 76.6172 343.875 76.4766C343.969 76.1953 344.016 75.9844 344.016 75.8438C344.016 75.5625 343.812 74.8359 343.406 73.6641C343.125 72.8828 342.875 72.1406 342.656 71.4375C342.453 70.7344 341.625 68.4219 340.172 64.5C339.531 64.3906 338.969 64.3359 338.484 64.3359L333.469 64.3828L331.992 64.3594C331.461 64.3594 330.875 64.3984 330.234 64.4766C330.031 64.9453 329.898 65.2812 329.836 65.4844L327.773 71.9297C326.898 74.3828 326.461 75.7344 326.461 75.9844C326.461 76.125 326.531 76.3594 326.672 76.6875C327 76.7812 327.438 76.8672 327.984 76.9453L331.172 77.2266C331.344 77.3672 331.43 77.4922 331.43 77.6016C331.43 77.6797 331.406 77.7969 331.359 77.9531C330.656 77.9688 330.117 77.9766 329.742 77.9766C328.492 77.9766 327.039 77.9375 325.383 77.8594C324.617 77.8281 324.07 77.8125 323.742 77.8125C323.414 77.8125 322.844 77.8281 322.031 77.8594C321.5 77.8906 321.117 77.9062 320.883 77.9062C320.508 77.9062 320.023 77.8828 319.43 77.8359V77.6953C319.43 77.5859 319.461 77.4375 319.523 77.25ZM330.703 63.1875C332.375 63.2812 334.281 63.3281 336.422 63.3281C337.641 63.3281 338.711 63.2891 339.633 63.2109C339.477 62.6016 339.297 62.0312 339.094 61.5C338.078 58.7812 337.516 57.2812 337.406 57L335.273 51.5859L335.039 51.1641C334.945 51.3516 334.602 52.1562 334.008 53.5781C333.008 56.0156 332.289 57.9141 331.852 59.2734C331.648 59.8828 331.438 60.4922 331.219 61.1016C331 61.6953 330.859 62.1172 330.797 62.3672C330.75 62.6016 330.672 62.8438 330.562 63.0938L330.703 63.1875Z" fill="white"/>
<path d="M230.673 105.982C229.794 105.947 228.616 105.93 227.14 105.93L225.232 105.982L224.38 105.956L223.703 105.982C223.633 105.977 223.53 105.962 223.396 105.938C223.501 105.692 223.636 105.467 223.8 105.262C224.286 104.664 224.998 103.894 225.936 102.95C227.248 101.632 228.112 100.598 228.528 99.8477C228.944 99.0918 229.152 98.3828 229.152 97.7207C229.152 97.0996 228.941 96.5781 228.52 96.1562C228.098 95.7344 227.579 95.5234 226.964 95.5234C226.595 95.5234 226.237 95.6113 225.892 95.7871C225.546 95.957 225.268 96.1738 225.057 96.4375C224.922 96.6074 224.743 96.9473 224.521 97.457C224.397 97.7383 224.324 97.8906 224.301 97.9141C224.266 97.9551 224.225 97.9756 224.178 97.9756C224.131 97.9756 224.084 97.9521 224.037 97.9053C223.996 97.8525 223.976 97.7881 223.976 97.7119C223.976 97.4482 224.107 97.0264 224.371 96.4463C224.641 95.8662 225.033 95.4121 225.549 95.084C226.07 94.7559 226.674 94.5918 227.359 94.5918C228.256 94.5918 229.003 94.8848 229.601 95.4707C230.204 96.0508 230.506 96.7451 230.506 97.5537C230.506 98.1924 230.301 98.8428 229.891 99.5049C229.48 100.161 228.537 101.169 227.061 102.528C226.574 102.974 226.229 103.302 226.023 103.513C225.818 103.724 225.405 104.181 224.784 104.884C225.681 104.919 226.495 104.937 227.228 104.937C227.386 104.937 227.559 104.931 227.746 104.919C228.092 104.907 228.294 104.901 228.353 104.901L229.574 104.928C229.709 104.928 229.847 104.863 229.987 104.734C230.128 104.605 230.318 104.242 230.559 103.645L230.77 103.636C230.799 103.636 230.843 103.639 230.901 103.645C230.931 103.703 230.945 103.747 230.945 103.776L230.928 103.847C230.881 104.017 230.84 104.327 230.805 104.778C230.781 105.042 230.737 105.443 230.673 105.982ZM238.1 95.8574C237.443 95.9102 236.913 95.9365 236.509 95.9365C236.21 95.9365 235.894 95.9277 235.56 95.9102C235.378 95.8984 235.27 95.8926 235.234 95.8926C234.52 95.8926 234.136 95.9072 234.083 95.9365C234.06 95.9482 234.045 95.9746 234.039 96.0156C234.021 96.1094 233.945 97.1553 233.811 99.1533C234.074 99.0186 234.329 98.9248 234.575 98.8721C234.821 98.8135 235.146 98.7842 235.551 98.7842C235.838 98.7842 236.037 98.8018 236.148 98.8369C236.705 99.0186 237.106 99.1826 237.353 99.3291C237.692 99.54 237.968 99.7803 238.179 100.05C238.396 100.319 238.595 100.715 238.776 101.236C238.905 101.611 238.97 102.004 238.97 102.414C238.97 102.859 238.905 103.275 238.776 103.662C238.653 104.043 238.498 104.362 238.311 104.62C238.123 104.878 237.845 105.147 237.476 105.429C237.106 105.704 236.67 105.915 236.166 106.062C235.668 106.208 235.334 106.284 235.164 106.29L233.89 106.176C233.538 106.117 233.23 106.023 232.967 105.895C232.703 105.76 232.527 105.631 232.439 105.508C232.387 105.432 232.36 105.332 232.36 105.209C232.36 105.115 232.425 105.013 232.554 104.901C232.688 104.79 232.853 104.734 233.046 104.734C233.134 104.734 233.23 104.761 233.336 104.813L234.03 105.262C234.188 105.402 234.385 105.534 234.619 105.657C234.654 105.675 234.742 105.695 234.883 105.719C235.223 105.766 235.407 105.789 235.437 105.789C235.565 105.789 235.785 105.736 236.096 105.631C236.406 105.525 236.693 105.347 236.957 105.095C237.221 104.837 237.446 104.515 237.634 104.128C237.827 103.735 237.924 103.302 237.924 102.827C237.924 101.978 237.657 101.277 237.124 100.727C236.591 100.176 235.949 99.9004 235.199 99.9004C234.865 99.9004 234.555 99.9561 234.268 100.067C233.986 100.179 233.796 100.302 233.696 100.437L233.564 100.489C233.494 100.519 233.444 100.533 233.415 100.533L233.301 100.507C233.283 100.401 233.274 100.322 233.274 100.27C233.274 100.223 233.283 100.141 233.301 100.023C233.342 99.7363 233.362 99.4404 233.362 99.1357C233.368 98.8252 233.4 98.5469 233.459 98.3008L233.433 97.8789C233.474 97.6621 233.497 97.4541 233.503 97.2549C233.521 95.9072 233.576 95.1338 233.67 94.9346C233.711 94.8408 233.781 94.7939 233.881 94.7939C233.922 94.7939 233.989 94.7998 234.083 94.8115L234.136 94.8203L235.252 94.8115C235.756 94.8408 236.128 94.8555 236.368 94.8555C236.919 94.8555 237.361 94.8174 237.695 94.7412C237.859 94.5889 237.985 94.5127 238.073 94.5127C238.108 94.5127 238.173 94.5186 238.267 94.5303L238.293 94.6357L238.223 95.0049L238.179 95.5938C238.173 95.6348 238.146 95.7227 238.1 95.8574ZM243.171 109.199C243.282 109.123 243.382 109.085 243.47 109.085C243.739 109.085 244.047 109.24 244.393 109.551C244.451 109.604 244.495 109.642 244.524 109.665L244.568 109.709C244.709 109.826 244.855 109.885 245.008 109.885C245.23 109.885 245.453 109.809 245.676 109.656C245.898 109.504 246.077 109.293 246.212 109.023C246.394 108.648 246.525 108.227 246.607 107.758C246.695 107.289 246.739 106.721 246.739 106.053L246.73 104.682L246.748 103.741C246.748 103.103 246.725 102.118 246.678 100.788L246.625 97.501L246.634 95.8047C246.64 95.6523 246.613 95.5205 246.555 95.4092C246.52 95.3506 246.455 95.2979 246.361 95.251C246.273 95.2041 246.145 95.1777 245.975 95.1719L245.324 95.1279C245.119 95.1279 244.979 95.1074 244.902 95.0664C244.879 94.9785 244.867 94.9111 244.867 94.8643L244.876 94.7588C245.005 94.7588 245.163 94.7646 245.351 94.7764C245.714 94.7939 246.068 94.8027 246.414 94.8027C246.578 94.8027 246.795 94.7998 247.064 94.7939C247.27 94.7822 247.413 94.7764 247.495 94.7764H248.787C248.969 94.7764 249.165 94.7852 249.376 94.8027C249.376 94.9375 249.37 95.043 249.358 95.1191C248.854 95.1426 248.535 95.1777 248.4 95.2246C248.266 95.2715 248.166 95.3359 248.102 95.418C248.061 95.4707 248.04 95.5732 248.04 95.7256L248.005 96.6396L248.014 96.8594C248.025 96.9648 248.031 97.167 248.031 97.4658V97.8174C248.031 98.0225 248.034 98.2041 248.04 98.3623C248.052 98.5967 248.058 98.7373 248.058 98.7842C248.058 98.8369 248.052 98.9746 248.04 99.1973C248.034 99.2617 248.031 99.3174 248.031 99.3643L248.137 101.808L248.119 103.381V104.4C248.119 104.986 248.008 105.804 247.785 106.853C247.621 107.614 247.325 108.306 246.897 108.927C246.47 109.554 246.048 109.981 245.632 110.21C245.216 110.438 244.662 110.553 243.971 110.553C243.602 110.553 243.306 110.465 243.083 110.289C242.931 110.166 242.854 110.002 242.854 109.797C242.854 109.551 242.96 109.352 243.171 109.199ZM255.52 94.7148C255.549 94.8145 255.563 94.8906 255.563 94.9434C255.563 94.9785 255.555 95.0312 255.537 95.1016C255.385 95.1426 255.262 95.1631 255.168 95.1631C255.127 95.1631 255.057 95.1602 254.957 95.1543C254.863 95.1426 254.787 95.1367 254.729 95.1367C254.459 95.1367 254.245 95.1895 254.087 95.2949C253.981 95.3594 253.917 95.4443 253.894 95.5498L253.806 96.5518L253.832 100.902C253.838 102.496 253.891 103.489 253.99 103.882C254.09 104.269 254.257 104.588 254.491 104.84C254.726 105.092 255.077 105.3 255.546 105.464C256.021 105.628 256.48 105.71 256.926 105.71C257.922 105.71 258.684 105.566 259.211 105.279C259.744 104.992 260.125 104.597 260.354 104.093C260.588 103.583 260.705 102.812 260.705 101.781C260.705 101.752 260.696 101.518 260.679 101.078V100.823C260.679 100.729 260.685 100.548 260.696 100.278C260.708 100.003 260.714 99.8418 260.714 99.7949L260.582 97.2725C260.541 96.4229 260.491 95.9219 260.433 95.7695C260.38 95.6172 260.301 95.5029 260.195 95.4268C259.967 95.2627 259.533 95.1162 258.895 94.9873C258.865 94.9053 258.848 94.8203 258.842 94.7324C259.07 94.709 259.296 94.6973 259.519 94.6973C259.753 94.6973 259.999 94.7061 260.257 94.7236C260.644 94.7529 260.854 94.7676 260.89 94.7676L262.278 94.7236L262.551 94.7324L262.542 95.0488C261.821 95.1426 261.391 95.2539 261.25 95.3828C261.109 95.5059 261.039 95.7373 261.039 96.0771C261.039 96.2588 261.051 96.6543 261.074 97.2637L261.136 99.083L261.127 99.8037L261.153 100.718C261.153 101.866 261.121 102.648 261.057 103.064C260.963 103.645 260.828 104.104 260.652 104.444C260.482 104.784 260.233 105.092 259.905 105.367C259.577 105.637 259.138 105.859 258.587 106.035C258.042 106.211 257.503 106.299 256.97 106.299C256.132 106.299 255.528 106.24 255.159 106.123C254.485 105.918 253.949 105.651 253.551 105.323C253.152 104.995 252.877 104.667 252.725 104.339C252.52 103.905 252.417 103.272 252.417 102.44V101.834L252.391 99.373L252.417 97.3867V96.0508C252.417 95.7109 252.37 95.4736 252.276 95.3389C252.212 95.2451 252.118 95.1982 251.995 95.1982L251.477 95.207C251.09 95.207 250.844 95.166 250.738 95.084C250.721 95.0312 250.712 94.9844 250.712 94.9434C250.712 94.8906 250.729 94.8496 250.765 94.8203C250.829 94.7734 250.908 94.75 251.002 94.75H251.23L251.819 94.7412H253.208L255.52 94.7148ZM263.386 95.251L263.377 94.8291C264.285 94.8291 264.95 94.8057 265.372 94.7588C265.536 94.7412 265.65 94.7324 265.715 94.7324C265.768 94.7324 265.847 94.7354 265.952 94.7412C266.198 94.9463 266.427 95.1807 266.638 95.4443C266.685 95.4971 266.737 95.5557 266.796 95.6201L268.65 97.668L268.914 97.9844C269.289 98.4238 269.629 98.7988 269.934 99.1094C270.244 99.4199 270.845 100.067 271.735 101.052L273.836 103.381C274.041 103.609 274.305 103.894 274.627 104.233L274.636 104.093C274.601 103.278 274.583 102.848 274.583 102.801L274.618 102.273L274.601 101.447V101.069C274.601 100.829 274.58 100.088 274.539 98.8457C274.533 98.6758 274.51 98.3564 274.469 97.8877C274.428 97.4131 274.407 96.9971 274.407 96.6396C274.407 95.9951 274.369 95.6201 274.293 95.5146C274.24 95.4385 273.991 95.3594 273.546 95.2773C273.44 95.2715 273.276 95.2539 273.054 95.2246C272.79 95.2129 272.635 95.1982 272.588 95.1807C272.541 95.1631 272.494 95.1133 272.447 95.0312C272.459 94.9375 272.485 94.8496 272.526 94.7676C272.685 94.7207 272.84 94.6973 272.992 94.6973C273.156 94.6973 273.358 94.7178 273.599 94.7588C273.845 94.7998 274.064 94.8203 274.258 94.8203C274.527 94.8203 274.946 94.8027 275.515 94.7676C275.837 94.7441 276.06 94.7324 276.183 94.7324H276.332L276.314 95.0049C276.221 95.0459 276.092 95.0723 275.928 95.084C275.764 95.0898 275.611 95.1133 275.471 95.1543C275.26 95.2188 275.134 95.2744 275.093 95.3213C274.952 95.4736 274.882 95.6289 274.882 95.7871L274.979 98.5645L275.049 99.8389L275.04 100.208L275.093 101.975C275.128 103.182 275.146 104.23 275.146 105.121C275.146 105.314 275.134 105.733 275.11 106.378L274.697 106.413C274.492 106.179 273.786 105.44 272.579 104.198C272.298 103.911 272.107 103.709 272.008 103.592L271.252 102.722C270.959 102.399 270.769 102.194 270.681 102.106C270.593 102.019 270.528 101.954 270.487 101.913C269.849 101.187 269.02 100.278 268 99.1885C267.725 98.8955 267.32 98.4385 266.787 97.8174C266.453 97.4248 266.242 97.1846 266.154 97.0967C266.066 97.0088 265.946 96.9092 265.794 96.7979L265.768 97.0967C265.768 98.2393 265.797 99.8154 265.855 101.825L265.917 104.734C265.923 104.98 265.938 105.218 265.961 105.446L266.269 105.517C266.825 105.569 267.373 105.648 267.912 105.754C267.953 105.789 267.988 105.815 268.018 105.833L268.009 106.167C267.915 106.196 267.839 106.211 267.78 106.211C267.716 106.211 267.637 106.205 267.543 106.193C266.963 106.146 266.257 106.123 265.425 106.123C264.839 106.123 264.323 106.138 263.878 106.167L263.755 106.176C263.702 106.176 263.626 106.17 263.526 106.158L263.518 105.895L263.746 105.789L264.159 105.728C264.528 105.675 264.798 105.616 264.968 105.552C265.079 105.511 265.17 105.449 265.24 105.367C265.305 104.963 265.337 104.371 265.337 103.592C265.337 103.229 265.328 102.563 265.311 101.597V100.401L265.293 97.9053C265.281 96.792 265.243 96.1357 265.179 95.9365C265.144 95.8311 265.07 95.7373 264.959 95.6553C264.736 95.4971 264.443 95.3975 264.08 95.3564C263.723 95.3154 263.491 95.2803 263.386 95.251ZM277.475 105.859C277.533 105.807 277.583 105.774 277.624 105.763C277.724 105.733 277.894 105.71 278.134 105.692C278.702 105.657 279.054 105.604 279.188 105.534C279.271 105.417 279.312 105.253 279.312 105.042L279.303 104.427L279.312 102.194L279.294 101.14L279.303 98.9336L279.259 96.4287C279.253 95.8311 279.215 95.4941 279.145 95.418C279.039 95.3066 278.726 95.2422 278.204 95.2246C277.981 95.2188 277.785 95.2012 277.615 95.1719C277.539 95.1309 277.501 95.0781 277.501 95.0137C277.501 94.9668 277.516 94.9111 277.545 94.8467C277.598 94.8174 277.645 94.8027 277.686 94.8027C277.768 94.8027 277.867 94.8057 277.984 94.8115C278.33 94.8408 278.688 94.8555 279.057 94.8555L279.707 94.8379L281.254 94.873C282.027 94.873 282.631 94.8643 283.064 94.8467C283.498 94.8291 283.791 94.8203 283.943 94.8203C284.078 94.8203 284.412 94.832 284.945 94.8555L286.193 94.8467L286.343 94.873L287.072 94.8467L287.16 94.8906C287.189 94.9375 287.21 94.9873 287.222 95.04C287.222 95.1221 287.207 95.248 287.178 95.418C287.154 95.5879 287.143 95.6934 287.143 95.7344C287.143 96.3438 287.163 96.8594 287.204 97.2812C287.198 97.3164 287.181 97.3398 287.151 97.3516C287.087 97.3516 287.028 97.3428 286.976 97.3252C286.911 97.2139 286.823 97.0176 286.712 96.7363C286.606 96.4551 286.445 96.1299 286.229 95.7607C286.082 95.5146 285.968 95.3682 285.886 95.3213C285.804 95.2744 285.634 95.251 285.376 95.251C285.323 95.251 285.057 95.2451 284.576 95.2334C284.447 95.2275 284.321 95.2246 284.198 95.2246L281.693 95.2773H281.474C281.151 95.2773 280.958 95.3184 280.894 95.4004C280.794 95.541 280.744 95.9541 280.744 96.6396C280.744 96.71 280.759 97.4131 280.788 98.749V99.9707C280.853 99.9883 280.923 99.9971 280.999 99.9971H281.148C281.248 99.9971 281.395 100 281.588 100.006C281.893 100.018 282.098 100.023 282.203 100.023C282.273 100.023 282.335 100.021 282.388 100.015C283.021 99.9912 283.835 99.9795 284.831 99.9795C285.142 99.9268 285.323 99.8652 285.376 99.7949C285.464 99.6895 285.528 99.4141 285.569 98.9688C285.616 98.5234 285.716 98.2715 285.868 98.2129C285.944 98.2129 286.015 98.2275 286.079 98.2568C286.091 98.3037 286.097 98.3477 286.097 98.3887C286.097 98.4297 286.091 98.4971 286.079 98.5908C286.05 98.8076 286.035 99.4873 286.035 100.63C286.035 100.935 286.05 101.274 286.079 101.649C286.114 102.024 286.132 102.227 286.132 102.256C286.132 102.309 286.123 102.379 286.105 102.467C286.059 102.49 286.021 102.502 285.991 102.502H285.93C285.836 102.338 285.745 102.083 285.657 101.737C285.505 101.146 285.344 100.776 285.174 100.63C285.01 100.478 284.74 100.401 284.365 100.401C284.283 100.401 284.134 100.407 283.917 100.419C283.7 100.425 283.378 100.428 282.95 100.428H282.379C281.564 100.428 281.031 100.445 280.779 100.48L280.771 100.771L280.779 102.388L280.771 103.407L280.779 104.4C280.785 104.998 280.823 105.344 280.894 105.438C280.993 105.566 281.21 105.631 281.544 105.631L282.08 105.622C282.127 105.622 282.309 105.628 282.625 105.64C282.947 105.646 283.343 105.648 283.812 105.648C284.942 105.648 285.695 105.602 286.07 105.508C286.445 105.408 286.753 105.235 286.993 104.989C287.239 104.743 287.547 104.213 287.916 103.398C288.027 103.158 288.139 103.038 288.25 103.038C288.303 103.038 288.361 103.062 288.426 103.108C288.256 103.688 288.159 104.069 288.136 104.251C288.071 104.661 288.033 105.08 288.021 105.508C288.021 105.701 287.975 105.862 287.881 105.991H287.688L285.218 106.018L284.11 106.009L281.474 106.044H280.401C280.267 106.044 280.141 106.047 280.023 106.053C278.969 106.1 278.192 106.123 277.694 106.123C277.606 106.123 277.545 106.108 277.51 106.079C277.48 106.05 277.466 106.006 277.466 105.947L277.475 105.859ZM301.021 105.982C300.142 105.947 298.964 105.93 297.487 105.93L295.58 105.982L294.728 105.956L294.051 105.982C293.98 105.977 293.878 105.962 293.743 105.938C293.849 105.692 293.983 105.467 294.147 105.262C294.634 104.664 295.346 103.894 296.283 102.95C297.596 101.632 298.46 100.598 298.876 99.8477C299.292 99.0918 299.5 98.3828 299.5 97.7207C299.5 97.0996 299.289 96.5781 298.867 96.1562C298.445 95.7344 297.927 95.5234 297.312 95.5234C296.942 95.5234 296.585 95.6113 296.239 95.7871C295.894 95.957 295.615 96.1738 295.404 96.4375C295.27 96.6074 295.091 96.9473 294.868 97.457C294.745 97.7383 294.672 97.8906 294.648 97.9141C294.613 97.9551 294.572 97.9756 294.525 97.9756C294.479 97.9756 294.432 97.9521 294.385 97.9053C294.344 97.8525 294.323 97.7881 294.323 97.7119C294.323 97.4482 294.455 97.0264 294.719 96.4463C294.988 95.8662 295.381 95.4121 295.896 95.084C296.418 94.7559 297.021 94.5918 297.707 94.5918C298.604 94.5918 299.351 94.8848 299.948 95.4707C300.552 96.0508 300.854 96.7451 300.854 97.5537C300.854 98.1924 300.648 98.8428 300.238 99.5049C299.828 100.161 298.885 101.169 297.408 102.528C296.922 102.974 296.576 103.302 296.371 103.513C296.166 103.724 295.753 104.181 295.132 104.884C296.028 104.919 296.843 104.937 297.575 104.937C297.733 104.937 297.906 104.931 298.094 104.919C298.439 104.907 298.642 104.901 298.7 104.901L299.922 104.928C300.057 104.928 300.194 104.863 300.335 104.734C300.476 104.605 300.666 104.242 300.906 103.645L301.117 103.636C301.146 103.636 301.19 103.639 301.249 103.645C301.278 103.703 301.293 103.747 301.293 103.776L301.275 103.847C301.229 104.017 301.188 104.327 301.152 104.778C301.129 105.042 301.085 105.443 301.021 105.982ZM309.66 100.454C309.66 101.058 309.616 101.594 309.528 102.062C309.37 102.871 309.15 103.548 308.869 104.093C308.588 104.638 308.254 105.098 307.867 105.473C307.586 105.748 307.287 105.947 306.971 106.07C306.654 106.199 306.332 106.264 306.004 106.264C305.424 106.264 304.873 106.07 304.352 105.684C303.836 105.297 303.385 104.658 302.998 103.768C302.611 102.877 302.418 101.828 302.418 100.621C302.418 99.6777 302.535 98.7725 302.77 97.9053C303.004 97.0381 303.312 96.3672 303.692 95.8926C304.079 95.4121 304.46 95.0664 304.835 94.8555C305.216 94.6445 305.629 94.5391 306.074 94.5391C306.701 94.5391 307.308 94.7852 307.894 95.2773C308.485 95.7695 308.957 96.5342 309.309 97.5713C309.543 98.2686 309.66 99.2295 309.66 100.454ZM308.342 100.164C308.336 98.7227 308.283 97.7441 308.184 97.2285C308.02 96.3789 307.75 95.7842 307.375 95.4443C307.006 95.1045 306.572 94.9346 306.074 94.9346C305.658 94.9346 305.263 95.0693 304.888 95.3389C304.519 95.6084 304.264 96.0303 304.123 96.6045C303.883 97.5361 303.763 98.9482 303.763 100.841C303.763 102.716 303.947 104.028 304.316 104.778C304.691 105.522 305.251 105.895 305.995 105.895C306.505 105.895 306.944 105.736 307.313 105.42C307.688 105.104 307.955 104.518 308.113 103.662C308.277 102.801 308.356 101.837 308.351 100.771L308.342 100.164ZM317.896 105.982C317.017 105.947 315.839 105.93 314.362 105.93L312.455 105.982L311.603 105.956L310.926 105.982C310.855 105.977 310.753 105.962 310.618 105.938C310.724 105.692 310.858 105.467 311.022 105.262C311.509 104.664 312.221 103.894 313.158 102.95C314.471 101.632 315.335 100.598 315.751 99.8477C316.167 99.0918 316.375 98.3828 316.375 97.7207C316.375 97.0996 316.164 96.5781 315.742 96.1562C315.32 95.7344 314.802 95.5234 314.187 95.5234C313.817 95.5234 313.46 95.6113 313.114 95.7871C312.769 95.957 312.49 96.1738 312.279 96.4375C312.145 96.6074 311.966 96.9473 311.743 97.457C311.62 97.7383 311.547 97.8906 311.523 97.9141C311.488 97.9551 311.447 97.9756 311.4 97.9756C311.354 97.9756 311.307 97.9521 311.26 97.9053C311.219 97.8525 311.198 97.7881 311.198 97.7119C311.198 97.4482 311.33 97.0264 311.594 96.4463C311.863 95.8662 312.256 95.4121 312.771 95.084C313.293 94.7559 313.896 94.5918 314.582 94.5918C315.479 94.5918 316.226 94.8848 316.823 95.4707C317.427 96.0508 317.729 96.7451 317.729 97.5537C317.729 98.1924 317.523 98.8428 317.113 99.5049C316.703 100.161 315.76 101.169 314.283 102.528C313.797 102.974 313.451 103.302 313.246 103.513C313.041 103.724 312.628 104.181 312.007 104.884C312.903 104.919 313.718 104.937 314.45 104.937C314.608 104.937 314.781 104.931 314.969 104.919C315.314 104.907 315.517 104.901 315.575 104.901L316.797 104.928C316.932 104.928 317.069 104.863 317.21 104.734C317.351 104.605 317.541 104.242 317.781 103.645L317.992 103.636C318.021 103.636 318.065 103.639 318.124 103.645C318.153 103.703 318.168 103.747 318.168 103.776L318.15 103.847C318.104 104.017 318.062 104.327 318.027 104.778C318.004 105.042 317.96 105.443 317.896 105.982ZM325.322 95.8574C324.666 95.9102 324.136 95.9365 323.731 95.9365C323.433 95.9365 323.116 95.9277 322.782 95.9102C322.601 95.8984 322.492 95.8926 322.457 95.8926C321.742 95.8926 321.358 95.9072 321.306 95.9365C321.282 95.9482 321.268 95.9746 321.262 96.0156C321.244 96.1094 321.168 97.1553 321.033 99.1533C321.297 99.0186 321.552 98.9248 321.798 98.8721C322.044 98.8135 322.369 98.7842 322.773 98.7842C323.061 98.7842 323.26 98.8018 323.371 98.8369C323.928 99.0186 324.329 99.1826 324.575 99.3291C324.915 99.54 325.19 99.7803 325.401 100.05C325.618 100.319 325.817 100.715 325.999 101.236C326.128 101.611 326.192 102.004 326.192 102.414C326.192 102.859 326.128 103.275 325.999 103.662C325.876 104.043 325.721 104.362 325.533 104.62C325.346 104.878 325.067 105.147 324.698 105.429C324.329 105.704 323.893 105.915 323.389 106.062C322.891 106.208 322.557 106.284 322.387 106.29L321.112 106.176C320.761 106.117 320.453 106.023 320.189 105.895C319.926 105.76 319.75 105.631 319.662 105.508C319.609 105.432 319.583 105.332 319.583 105.209C319.583 105.115 319.647 105.013 319.776 104.901C319.911 104.79 320.075 104.734 320.269 104.734C320.356 104.734 320.453 104.761 320.559 104.813L321.253 105.262C321.411 105.402 321.607 105.534 321.842 105.657C321.877 105.675 321.965 105.695 322.105 105.719C322.445 105.766 322.63 105.789 322.659 105.789C322.788 105.789 323.008 105.736 323.318 105.631C323.629 105.525 323.916 105.347 324.18 105.095C324.443 104.837 324.669 104.515 324.856 104.128C325.05 103.735 325.146 103.302 325.146 102.827C325.146 101.978 324.88 101.277 324.347 100.727C323.813 100.176 323.172 99.9004 322.422 99.9004C322.088 99.9004 321.777 99.9561 321.49 100.067C321.209 100.179 321.019 100.302 320.919 100.437L320.787 100.489C320.717 100.519 320.667 100.533 320.638 100.533L320.523 100.507C320.506 100.401 320.497 100.322 320.497 100.27C320.497 100.223 320.506 100.141 320.523 100.023C320.564 99.7363 320.585 99.4404 320.585 99.1357C320.591 98.8252 320.623 98.5469 320.682 98.3008L320.655 97.8789C320.696 97.6621 320.72 97.4541 320.726 97.2549C320.743 95.9072 320.799 95.1338 320.893 94.9346C320.934 94.8408 321.004 94.7939 321.104 94.7939C321.145 94.7939 321.212 94.7998 321.306 94.8115L321.358 94.8203L322.475 94.8115C322.979 94.8408 323.351 94.8555 323.591 94.8555C324.142 94.8555 324.584 94.8174 324.918 94.7412C325.082 94.5889 325.208 94.5127 325.296 94.5127C325.331 94.5127 325.396 94.5186 325.489 94.5303L325.516 94.6357L325.445 95.0049L325.401 95.5938C325.396 95.6348 325.369 95.7227 325.322 95.8574Z" fill="white"/>
</svg>
